<svg width="147" height="66" viewBox="0 0 147 66" fill="none" xmlns="http://www.w3.org/2000/svg">
<g clip-path="url(#clip0_593_2679)">
<path d="M28.455 19.1469C28.455 18.9597 28.455 18.5853 28.455 18.2109H22.6517C22.6517 19.3341 22.3709 20.4573 21.8093 21.4869C19.5628 25.5118 13.8531 25.9798 10.8578 22.5166C9.73461 21.2061 9.2666 19.7085 9.2666 18.2109H3.46328C3.46328 18.6789 3.46328 19.1469 3.46328 19.4277C3.27607 21.1125 0 21.3933 0 22.9846C0 23.359 0.842418 25.4182 1.12322 25.8862C1.40403 26.3543 1.77844 26.7287 2.43365 26.6351C3.55688 26.6351 5.33532 25.5118 6.36494 26.2607C6.64575 26.4479 7.67537 27.4775 7.95617 27.7583C9.3602 29.3495 6.64575 32.064 8.51779 33.0936C8.89219 33.2808 10.6706 34.0296 11.1386 34.1232C11.6067 34.1232 12.0747 34.1232 12.4491 33.7488C13.2915 32.9064 13.7595 30.7536 15.0699 30.6599C15.5379 30.6599 16.7548 30.6599 17.2228 30.6599C18.9076 30.8472 19.282 34.1232 20.8733 34.1232C21.2477 34.1232 23.3069 33.2808 23.7749 33C24.2429 32.7192 24.6173 32.3448 24.6173 31.7832C24.6173 30.6599 23.4941 28.8815 24.1493 27.8519C24.2429 27.6647 25.3662 26.5415 25.647 26.2607C27.2382 24.8566 29.9527 27.5711 30.9823 25.699C31.1695 25.3246 31.9183 23.5462 32.0119 23.0782C32.3863 20.9253 28.7358 21.0189 28.5486 19.0533L28.455 19.1469Z" fill="#3EBD93"/>
<path d="M29.2975 46.1043C29.0167 44.3258 26.3022 45.4491 25.5534 44.1386C25.5534 43.9514 25.3662 43.7642 25.2726 43.4834C25.0854 43.109 24.9918 42.7346 24.8982 42.5474C24.6174 41.3306 26.9574 40.1138 26.4894 38.8969C26.3958 38.6161 25.0854 37.2121 24.711 37.0249C24.4302 36.8377 23.9622 36.7441 23.6813 36.8377C22.7453 37.2121 21.9029 38.5225 20.7797 38.2417C20.4989 38.2417 19.5629 37.7737 19.282 37.5865C18.1588 37.0249 18.6268 35.2464 18.1588 34.3104C17.9716 33.936 17.6908 33.7488 17.3164 33.7488C16.942 33.7488 15.3508 33.6552 15.07 33.7488C14.8828 33.7488 14.6019 33.936 14.4147 33.936C13.8531 34.3104 13.9467 36.3697 13.4787 37.0249C13.1979 37.3993 11.8875 37.8673 11.4195 38.0545C10.109 38.4289 8.89222 35.9953 7.6754 36.5569C7.39459 36.6505 6.08416 37.9609 5.80335 38.2417C5.52255 38.6161 5.33534 38.9905 5.61615 39.4585C5.99056 40.301 7.39459 41.4242 7.02018 42.4538C6.92658 42.7346 6.27136 44.045 6.08416 44.2322C5.42895 44.8875 3.93131 44.6067 3.08889 44.9811C2.71449 45.1683 2.52728 45.5427 2.52728 45.9171C2.52728 46.1043 2.52728 46.6659 2.52728 47.2275H10.5771C10.5771 45.2619 11.6067 43.3898 13.5723 42.3602C16.5676 40.8626 19.8437 42.5474 20.9669 45.2619C21.1541 45.8235 21.3413 46.4787 21.3413 47.1339H29.3911C29.3911 46.7595 29.3911 46.3851 29.3911 46.2915L29.2975 46.1043Z" fill="#2F8070"/>
<path d="M43.057 18.3981V47.0403H37.3472V18.3981H43.057Z" fill="white"/>
<path d="M54.3828 22.9846V30.1919H64.0238V34.7784H54.3828V42.3602H65.2406V47.0403H48.5795V18.3981H65.2406V23.0782H54.3828V22.9846Z" fill="white"/>
<path d="M90.326 31.5024C89.5772 32.8128 88.4539 33.936 86.9563 34.7784C85.3651 35.6208 83.493 35.9953 81.153 35.9953H76.3793V46.9467H70.6696V18.3045H81.2466C83.493 18.3045 85.3651 18.6789 86.9563 19.4277C88.5475 20.1765 89.6708 21.2061 90.4196 22.6102C91.1684 23.9206 91.5428 25.5118 91.5428 27.1967C91.5428 28.8815 91.1684 30.1919 90.4196 31.5024H90.326ZM84.3355 30.2855C85.0843 29.5367 85.4587 28.5071 85.4587 27.1967C85.4587 24.3886 83.8674 22.9846 80.7786 22.9846H76.1921V31.3152H80.7786C82.3698 31.3152 83.5866 30.9407 84.3355 30.1919V30.2855Z" fill="white"/>
<path d="M100.622 18.3045V23.827H99.499V18.3045H100.622Z" fill="white"/>
<path d="M105.396 19.8957C105.677 20.2701 105.864 20.6445 105.864 21.2997V23.827H104.741V21.3934C104.741 21.0189 104.741 20.7381 104.46 20.5509C104.273 20.3637 104.085 20.2701 103.711 20.2701C103.337 20.2701 103.149 20.3637 102.962 20.5509C102.775 20.7381 102.681 21.0189 102.681 21.3934V23.827H101.558V19.4277H102.681V19.9893C102.869 19.8021 103.056 19.6149 103.243 19.5213C103.43 19.4277 103.711 19.3341 103.992 19.3341C104.553 19.3341 104.928 19.5213 105.209 19.8021L105.396 19.8957Z" fill="white"/>
<path d="M108.204 20.3637V22.5166C108.204 22.7038 108.204 22.7974 108.298 22.7974C108.298 22.7974 108.485 22.891 108.672 22.891H109.14V23.827H108.485C107.549 23.827 107.081 23.359 107.081 22.5166V20.4573H106.519V19.5213H107.081V18.3981H108.204V19.5213H109.14V20.4573H108.204V20.3637Z" fill="white"/>
<path d="M114.007 21.955H110.825C110.825 22.2358 110.918 22.5166 111.199 22.7038C111.386 22.891 111.667 22.9846 111.948 22.9846C112.322 22.9846 112.697 22.7974 112.79 22.423H114.007C113.914 22.7974 113.633 23.1718 113.258 23.4526C112.884 23.7334 112.416 23.827 111.948 23.827C111.48 23.827 111.106 23.827 110.825 23.5462C110.45 23.359 110.263 23.0782 110.076 22.7974C109.889 22.423 109.795 22.0486 109.795 21.5806C109.795 21.1125 109.795 20.7381 110.076 20.3637C110.263 19.9893 110.544 19.8021 110.825 19.6149C111.106 19.4277 111.574 19.3341 111.948 19.3341C112.322 19.3341 112.697 19.3341 113.071 19.6149C113.446 19.8957 113.633 20.0829 113.82 20.3637C114.007 20.6445 114.101 21.1125 114.101 21.487C114.101 21.8614 114.101 21.7678 114.101 21.955H114.007ZM112.884 21.2061C112.884 20.9253 112.79 20.7381 112.603 20.5509C112.416 20.3637 112.135 20.2701 111.854 20.2701C111.574 20.2701 111.386 20.2701 111.199 20.5509C111.012 20.7381 110.918 20.9253 110.825 21.2061H112.884Z" fill="white"/>
<path d="M117.377 19.5213C117.658 19.6149 117.845 19.8021 117.939 19.9893V19.3341H119.062V23.7334C119.062 24.1078 119.062 24.4822 118.781 24.8566C118.594 25.1374 118.407 25.4182 118.032 25.6055C117.751 25.7927 117.283 25.8863 116.815 25.8863C116.347 25.8863 115.692 25.6991 115.318 25.4182C114.943 25.1374 114.663 24.763 114.663 24.2014H115.786C115.786 24.3886 115.973 24.5758 116.16 24.6694C116.347 24.763 116.628 24.8566 116.815 24.8566C117.003 24.8566 117.377 24.763 117.564 24.5758C117.751 24.3886 117.845 24.1078 117.845 23.7334V23.0782C117.658 23.2654 117.471 23.4526 117.283 23.5462C117.003 23.6398 116.722 23.7334 116.441 23.7334C116.16 23.7334 115.692 23.6398 115.411 23.4526C115.131 23.2654 114.85 22.9846 114.663 22.6102C114.475 22.2358 114.382 21.8614 114.382 21.3934C114.382 20.9254 114.382 20.5509 114.663 20.1765C114.85 19.8021 115.037 19.6149 115.411 19.4277C115.692 19.2405 116.067 19.1469 116.441 19.1469C116.815 19.1469 117.096 19.1469 117.283 19.3341L117.377 19.5213ZM117.845 20.9254C117.751 20.7381 117.564 20.5509 117.377 20.4573C117.19 20.3637 117.003 20.2701 116.815 20.2701C116.628 20.2701 116.441 20.2701 116.254 20.4573C116.067 20.5509 115.973 20.7381 115.786 20.9254C115.692 21.1126 115.599 21.2998 115.599 21.5806C115.599 21.8614 115.599 22.0486 115.786 22.2358C115.879 22.423 116.067 22.6102 116.254 22.7038C116.441 22.7974 116.628 22.891 116.815 22.891C117.003 22.891 117.19 22.891 117.377 22.7038C117.564 22.5166 117.658 22.423 117.845 22.2358C117.939 22.0486 118.032 21.7678 118.032 21.5806C118.032 21.3934 118.032 21.1126 117.845 20.9254Z" fill="white"/>
<path d="M121.87 19.6149C122.057 19.5213 122.338 19.4277 122.619 19.4277V20.5509H122.338C121.963 20.5509 121.776 20.5509 121.589 20.8317C121.402 21.1125 121.308 21.2997 121.308 21.6742V23.827H120.185V19.4277H121.308V20.0829C121.495 19.8957 121.589 19.7085 121.87 19.5213V19.6149Z" fill="white"/>
<path d="M123.367 20.4573C123.555 20.0829 123.742 19.8957 124.116 19.7085C124.397 19.5213 124.772 19.4277 125.146 19.4277C125.52 19.4277 125.801 19.4277 125.988 19.6149C126.269 19.7085 126.456 19.8957 126.55 20.0829V19.4277H127.673V23.827H126.55V23.1718C126.363 23.359 126.176 23.5462 125.988 23.6398C125.708 23.7334 125.427 23.827 125.146 23.827C124.865 23.827 124.397 23.7334 124.116 23.5462C123.835 23.359 123.555 23.0782 123.367 22.7038C123.18 22.3294 123.087 21.955 123.087 21.4869C123.087 21.0189 123.087 20.6445 123.367 20.2701V20.4573ZM126.363 20.9253C126.269 20.7381 126.082 20.5509 125.895 20.4573C125.708 20.3637 125.52 20.2701 125.333 20.2701C125.146 20.2701 124.959 20.2701 124.772 20.4573C124.584 20.5509 124.491 20.7381 124.303 20.9253C124.21 21.1125 124.116 21.2997 124.116 21.5806C124.116 21.8614 124.116 22.0486 124.303 22.2358C124.397 22.423 124.584 22.6102 124.772 22.7038C124.959 22.7974 125.146 22.891 125.333 22.891C125.52 22.891 125.708 22.891 125.895 22.7038C126.082 22.5166 126.176 22.423 126.363 22.2358C126.456 22.0486 126.55 21.7678 126.55 21.5806C126.55 21.3933 126.55 21.1125 126.363 20.9253Z" fill="white"/>
<path d="M130.013 20.3637V22.5166C130.013 22.7038 130.013 22.7974 130.107 22.7974C130.107 22.7974 130.294 22.891 130.481 22.891H130.949V23.827H130.294C129.358 23.827 128.89 23.359 128.89 22.5166V20.4573H128.328V19.5213H128.89V18.3981H130.013V19.5213H130.949V20.4573H130.013V20.3637Z" fill="white"/>
<path d="M135.817 21.955H132.634C132.634 22.2358 132.728 22.5166 133.009 22.7038C133.196 22.891 133.477 22.9846 133.757 22.9846C134.132 22.9846 134.506 22.7974 134.6 22.423H135.817C135.723 22.7974 135.442 23.1718 135.068 23.4526C134.693 23.7334 134.225 23.827 133.757 23.827C133.289 23.827 132.915 23.827 132.634 23.5462C132.26 23.359 132.072 23.0782 131.885 22.7974C131.698 22.423 131.604 22.0486 131.604 21.5806C131.604 21.1125 131.604 20.7381 131.885 20.3637C132.072 19.9893 132.353 19.8021 132.634 19.6149C132.915 19.4277 133.383 19.3341 133.757 19.3341C134.132 19.3341 134.506 19.3341 134.881 19.6149C135.255 19.8957 135.442 20.0829 135.629 20.3637C135.817 20.6445 135.91 21.1125 135.91 21.487C135.91 21.8614 135.91 21.7678 135.91 21.955H135.817ZM134.693 21.2061C134.693 20.9253 134.6 20.7381 134.413 20.5509C134.225 20.3637 133.945 20.2701 133.664 20.2701C133.383 20.2701 133.196 20.2701 133.009 20.5509C132.821 20.7381 132.728 20.9253 132.634 21.2061H134.693Z" fill="white"/>
<path d="M136.659 20.4573C136.846 20.0829 137.033 19.8957 137.408 19.7085C137.689 19.5213 138.063 19.4277 138.437 19.4277C138.812 19.4277 138.999 19.4277 139.28 19.6149C139.561 19.7085 139.748 19.8957 139.935 20.0829V18.0237H141.058V23.827H139.935V23.1718C139.841 23.359 139.561 23.5462 139.373 23.7334C139.093 23.827 138.812 23.9206 138.531 23.9206C138.25 23.9206 137.782 23.827 137.501 23.6398C137.221 23.4526 136.94 23.1718 136.753 22.7974C136.565 22.423 136.472 22.0486 136.472 21.5806C136.472 21.1126 136.472 20.7381 136.753 20.3637L136.659 20.4573ZM139.654 20.9253C139.561 20.7381 139.373 20.5509 139.186 20.4573C138.999 20.3637 138.812 20.2701 138.625 20.2701C138.437 20.2701 138.25 20.2701 138.063 20.4573C137.876 20.5509 137.782 20.7381 137.595 20.9253C137.501 21.1125 137.408 21.2998 137.408 21.5806C137.408 21.8614 137.408 22.0486 137.595 22.2358C137.689 22.423 137.876 22.6102 138.063 22.7038C138.25 22.7974 138.437 22.891 138.625 22.891C138.812 22.891 138.999 22.891 139.186 22.7038C139.373 22.5166 139.467 22.423 139.654 22.2358C139.748 22.0486 139.841 21.7678 139.841 21.5806C139.841 21.3934 139.841 21.1125 139.654 20.9253Z" fill="white"/>
<path d="M100.622 30.8471V32.2512H102.494V33.0936H100.622V34.5912H102.681V35.5272H99.499V30.0047H102.681V30.9408H100.622V30.8471Z" fill="white"/>
<path d="M107.362 31.5024C107.642 31.8768 107.83 32.2512 107.83 32.9064V35.4337H106.706V33C106.706 32.6256 106.706 32.3448 106.426 32.1576C106.238 31.9704 106.051 31.8768 105.677 31.8768C105.302 31.8768 105.115 31.9704 104.928 32.1576C104.741 32.3448 104.647 32.6256 104.647 33V35.4337H103.524V31.0344H104.647V31.596C104.834 31.4088 105.022 31.2216 105.209 31.128C105.396 31.0344 105.677 30.9408 105.958 30.9408C106.519 30.9408 106.894 31.128 107.174 31.4088L107.362 31.5024Z" fill="white"/>
<path d="M111.48 31.2216C111.761 31.3152 111.948 31.5024 112.042 31.6896V31.0344H113.165V35.4337C113.165 35.8081 113.165 36.1825 112.884 36.5569C112.697 36.8377 112.51 37.1185 112.135 37.3057C111.854 37.4929 111.386 37.5865 110.918 37.5865C110.45 37.5865 109.795 37.3993 109.421 37.1185C109.046 36.8377 108.766 36.4633 108.766 35.9017H109.889C109.889 36.0889 110.076 36.2761 110.263 36.3697C110.45 36.4633 110.731 36.5569 110.918 36.5569C111.106 36.5569 111.48 36.4633 111.667 36.2761C111.854 36.0889 111.948 35.8081 111.948 35.4337V34.7785C111.761 34.9657 111.574 35.1529 111.386 35.2465C111.106 35.3401 110.825 35.4337 110.544 35.4337C110.263 35.4337 109.795 35.3401 109.514 35.1529C109.234 34.9657 108.953 34.6849 108.766 34.3104C108.578 33.936 108.485 33.5616 108.485 33.0936C108.485 32.6256 108.485 32.2512 108.766 31.8768C108.953 31.5024 109.14 31.3152 109.514 31.128C109.795 30.9408 110.17 30.8472 110.544 30.8472C110.918 30.8472 111.199 30.8472 111.386 31.0344L111.48 31.2216ZM111.948 32.532C111.854 32.3448 111.667 32.1576 111.48 32.064C111.293 31.9704 111.106 31.8768 110.918 31.8768C110.731 31.8768 110.544 31.8768 110.357 32.064C110.17 32.1576 110.076 32.3448 109.889 32.532C109.795 32.7192 109.702 32.9064 109.702 33.1872C109.702 33.468 109.702 33.6552 109.889 33.8424C109.982 34.0296 110.17 34.2168 110.357 34.3104C110.544 34.404 110.731 34.4976 110.918 34.4976C111.106 34.4976 111.293 34.4976 111.48 34.3104C111.667 34.1232 111.761 34.0296 111.948 33.8424C112.042 33.6552 112.135 33.3744 112.135 33.1872C112.135 33 112.135 32.7192 111.948 32.532Z" fill="white"/>
<path d="M114.382 30.3791C114.288 30.2855 114.194 30.0983 114.194 29.9111C114.194 29.7239 114.194 29.5367 114.382 29.4431C114.475 29.3495 114.662 29.2559 114.85 29.2559C115.037 29.2559 115.224 29.2559 115.318 29.4431C115.411 29.5367 115.505 29.7239 115.505 29.9111C115.505 30.0983 115.505 30.2855 115.318 30.3791C115.224 30.4727 115.037 30.5663 114.85 30.5663C114.662 30.5663 114.475 30.5663 114.382 30.3791ZM115.411 31.0344V35.4337H114.288V31.0344H115.411Z" fill="white"/>
<path d="M120.185 31.5024C120.466 31.8768 120.653 32.2512 120.653 32.9064V35.4337H119.53V33C119.53 32.6256 119.53 32.3448 119.249 32.1576C119.062 31.9704 118.875 31.8768 118.5 31.8768C118.126 31.8768 117.939 31.9704 117.751 32.1576C117.564 32.3448 117.471 32.6256 117.471 33V35.4337H116.347V31.0344H117.471V31.596C117.658 31.4088 117.845 31.2216 118.032 31.128C118.219 31.0344 118.5 30.9408 118.781 30.9408C119.343 30.9408 119.717 31.128 119.998 31.4088L120.185 31.5024Z" fill="white"/>
<path d="M125.708 33.5616H122.525C122.525 33.8424 122.619 34.1232 122.899 34.3104C123.087 34.4976 123.367 34.5912 123.648 34.5912C124.023 34.5912 124.397 34.404 124.491 34.0296H125.708C125.614 34.404 125.333 34.7784 124.959 35.0593C124.584 35.3401 124.116 35.4337 123.648 35.4337C123.18 35.4337 122.806 35.4337 122.525 35.1529C122.151 34.9657 121.963 34.6848 121.776 34.404C121.589 34.0296 121.495 33.6552 121.495 33.1872C121.495 32.7192 121.495 32.3448 121.776 31.9704C121.963 31.596 122.244 31.4088 122.525 31.2216C122.806 31.0344 123.274 30.9408 123.648 30.9408C124.023 30.9408 124.397 30.9408 124.771 31.2216C125.146 31.5024 125.333 31.6896 125.52 31.9704C125.708 32.2512 125.801 32.7192 125.801 33.0936C125.801 33.468 125.801 33.3744 125.801 33.5616H125.708ZM124.584 32.8128C124.584 32.532 124.491 32.3448 124.303 32.1576C124.116 31.9704 123.835 31.8768 123.555 31.8768C123.274 31.8768 123.087 31.8768 122.899 32.1576C122.712 32.3448 122.619 32.532 122.525 32.8128H124.584Z" fill="white"/>
<path d="M130.575 33.5616H127.392C127.392 33.8424 127.486 34.1232 127.767 34.3104C127.954 34.4976 128.235 34.5912 128.516 34.5912C128.89 34.5912 129.264 34.404 129.358 34.0296H130.575C130.481 34.404 130.2 34.7784 129.826 35.0593C129.452 35.3401 128.984 35.4337 128.516 35.4337C128.048 35.4337 127.673 35.4337 127.392 35.1529C127.018 34.9657 126.831 34.6848 126.644 34.404C126.456 34.0296 126.363 33.6552 126.363 33.1872C126.363 32.7192 126.363 32.3448 126.644 31.9704C126.831 31.596 127.112 31.4088 127.392 31.2216C127.673 31.0344 128.141 30.9408 128.516 30.9408C128.89 30.9408 129.264 30.9408 129.639 31.2216C130.013 31.5024 130.2 31.6896 130.388 31.9704C130.575 32.2512 130.668 32.7192 130.668 33.0936C130.668 33.468 130.668 33.3744 130.668 33.5616H130.575ZM129.452 32.8128C129.452 32.532 129.358 32.3448 129.171 32.1576C128.984 31.9704 128.703 31.8768 128.422 31.8768C128.141 31.8768 127.954 31.8768 127.767 32.1576C127.58 32.3448 127.486 32.532 127.392 32.8128H129.452Z" fill="white"/>
<path d="M133.102 31.2216C133.289 31.128 133.57 31.0344 133.851 31.0344V32.1576H133.57C133.196 32.1576 133.008 32.1576 132.821 32.4384C132.634 32.7192 132.54 32.9064 132.54 33.2808V35.4337H131.417V31.0344H132.54V31.6896C132.728 31.5024 132.821 31.3152 133.102 31.128V31.2216Z" fill="white"/>
<path d="M134.693 30.3791C134.6 30.2855 134.506 30.0983 134.506 29.9111C134.506 29.7239 134.506 29.5367 134.693 29.4431C134.787 29.3495 134.974 29.2559 135.161 29.2559C135.349 29.2559 135.536 29.2559 135.629 29.4431C135.723 29.5367 135.817 29.7239 135.817 29.9111C135.817 30.0983 135.817 30.2855 135.629 30.3791C135.536 30.4727 135.349 30.5663 135.161 30.5663C134.974 30.5663 134.787 30.5663 134.693 30.3791ZM135.723 31.0344V35.4337H134.6V31.0344H135.723Z" fill="white"/>
<path d="M140.497 31.5024C140.777 31.8768 140.965 32.2512 140.965 32.9064V35.4337H139.841V33C139.841 32.6256 139.841 32.3448 139.561 32.1576C139.373 31.9704 139.186 31.8768 138.812 31.8768C138.437 31.8768 138.25 31.9704 138.063 32.1576C137.876 32.3448 137.782 32.6256 137.782 33V35.4337H136.659V31.0344H137.782V31.596C137.969 31.4088 138.157 31.2216 138.344 31.128C138.531 31.0344 138.812 30.9408 139.093 30.9408C139.654 30.9408 140.029 31.128 140.309 31.4088L140.497 31.5024Z" fill="white"/>
<path d="M144.522 31.2216C144.802 31.3152 144.99 31.5024 145.083 31.6896V31.0344H146.206V35.4337C146.206 35.8081 146.206 36.1825 145.926 36.5569C145.738 36.8377 145.551 37.1185 145.177 37.3057C144.896 37.4929 144.428 37.5865 143.96 37.5865C143.492 37.5865 142.837 37.3993 142.462 37.1185C142.088 36.8377 141.807 36.4633 141.807 35.9017H142.93C142.93 36.0889 143.118 36.2761 143.305 36.3697C143.492 36.4633 143.773 36.5569 143.96 36.5569C144.147 36.5569 144.522 36.4633 144.709 36.2761C144.896 36.0889 144.99 35.8081 144.99 35.4337V34.7785C144.802 34.9657 144.615 35.1529 144.428 35.2465C144.147 35.3401 143.866 35.4337 143.586 35.4337C143.305 35.4337 142.837 35.3401 142.556 35.1529C142.275 34.9657 141.994 34.6849 141.807 34.3104C141.62 33.936 141.526 33.5616 141.526 33.0936C141.526 32.6256 141.526 32.2512 141.807 31.8768C141.994 31.5024 142.182 31.3152 142.556 31.128C142.837 30.9408 143.211 30.8472 143.586 30.8472C143.96 30.8472 144.241 30.8472 144.428 31.0344L144.522 31.2216ZM144.99 32.532C144.896 32.3448 144.709 32.1576 144.522 32.064C144.334 31.9704 144.147 31.8768 143.96 31.8768C143.773 31.8768 143.586 31.8768 143.398 32.064C143.211 32.1576 143.118 32.3448 142.93 32.532C142.837 32.7192 142.743 32.9064 142.743 33.1872C142.743 33.468 142.743 33.6552 142.93 33.8424C143.024 34.0296 143.211 34.2168 143.398 34.3104C143.586 34.404 143.773 34.4976 143.96 34.4976C144.147 34.4976 144.334 34.4976 144.522 34.3104C144.709 34.1232 144.802 34.0296 144.99 33.8424C145.083 33.6552 145.177 33.3744 145.177 33.1872C145.177 33 145.177 32.7192 144.99 32.532Z" fill="white"/>
<path d="M103.337 44.1386C103.243 44.4194 102.962 44.6066 102.681 44.7939C102.401 44.9811 102.026 45.0747 101.558 45.0747H100.622V47.2275H99.499V41.705H101.558C102.026 41.705 102.307 41.705 102.681 41.8922C102.962 42.0794 103.243 42.2666 103.337 42.4538C103.524 42.7346 103.524 43.0154 103.524 43.2962C103.524 43.577 103.524 43.8578 103.337 44.1386ZM102.213 43.8578C102.401 43.7642 102.401 43.4834 102.401 43.2962C102.401 42.7346 102.12 42.4538 101.465 42.4538H100.622V44.045H101.465C101.745 44.045 102.026 44.045 102.12 43.8578H102.213Z" fill="white"/>
<path d="M105.396 41.237V47.0403H104.273V41.237H105.396Z" fill="white"/>
<path d="M106.519 43.6706C106.706 43.2962 106.893 43.109 107.268 42.9218C107.549 42.7346 107.923 42.641 108.298 42.641C108.672 42.641 108.953 42.641 109.14 42.8282C109.421 42.9218 109.608 43.109 109.702 43.2962V42.641H110.825V47.0403H109.702V46.3851C109.514 46.5723 109.327 46.7595 109.14 46.8531C108.859 46.9467 108.578 47.0403 108.298 47.0403C108.017 47.0403 107.549 46.9467 107.268 46.7595C106.987 46.5723 106.706 46.2915 106.519 45.9171C106.332 45.5427 106.238 45.1683 106.238 44.7003C106.238 44.2323 106.238 43.8578 106.519 43.4834V43.6706ZM109.514 44.2323C109.421 44.0451 109.234 43.8578 109.046 43.7642C108.859 43.6706 108.672 43.577 108.485 43.577C108.298 43.577 108.11 43.577 107.923 43.7642C107.736 43.8578 107.642 44.0451 107.455 44.2323C107.362 44.4195 107.268 44.6067 107.268 44.8875C107.268 45.1683 107.268 45.3555 107.455 45.5427C107.549 45.7299 107.736 45.9171 107.923 46.0107C108.11 46.1043 108.298 46.1979 108.485 46.1979C108.672 46.1979 108.859 46.1979 109.046 46.0107C109.234 45.8235 109.327 45.7299 109.514 45.5427C109.608 45.3555 109.702 45.0747 109.702 44.8875C109.702 44.7003 109.702 44.4195 109.514 44.2323Z" fill="white"/>
<path d="M113.165 43.577V45.7299C113.165 45.9171 113.165 46.0107 113.258 46.0107C113.258 46.0107 113.446 46.1043 113.633 46.1043H114.101V47.0403H113.446C112.51 47.0403 112.042 46.5723 112.042 45.7299V43.6706H111.48V42.7346H112.042V41.6114H113.165V42.7346H114.101V43.6706H113.165V43.577Z" fill="white"/>
<path d="M116.909 43.577H116.16V47.0403H115.037V43.577H114.569V42.641H115.037V42.4538C115.037 41.8922 115.224 41.5178 115.505 41.237C115.786 40.9562 116.254 40.8626 116.909 40.8626V41.7986C116.628 41.7986 116.441 41.7986 116.347 41.8922C116.254 41.9858 116.16 42.173 116.16 42.3602V42.5474H116.909V43.4834V43.577Z" fill="white"/>
<path d="M118.407 46.8531C118.032 46.6659 117.845 46.3851 117.658 46.1043C117.471 45.7299 117.377 45.3555 117.377 44.8875C117.377 44.4195 117.471 44.0451 117.658 43.6706C117.845 43.2962 118.126 43.109 118.5 42.9218C118.875 42.7346 119.249 42.641 119.623 42.641C119.998 42.641 120.466 42.7346 120.747 42.9218C121.027 43.109 121.402 43.3898 121.589 43.6706C121.776 44.0451 121.87 44.4195 121.87 44.8875C121.87 45.3555 121.776 45.7299 121.589 46.1043C121.402 46.4787 121.121 46.6659 120.747 46.8531C120.372 47.0403 119.998 47.1339 119.623 47.1339C119.249 47.1339 118.781 47.1339 118.5 46.8531H118.407ZM120.091 46.0107C120.279 45.9171 120.372 45.7299 120.466 45.5427C120.559 45.3555 120.653 45.0747 120.653 44.7939C120.653 44.4195 120.559 44.0451 120.372 43.8578C120.185 43.6706 119.904 43.4834 119.53 43.4834C119.155 43.4834 118.968 43.577 118.781 43.8578C118.594 44.1387 118.5 44.4195 118.5 44.7939C118.5 45.1683 118.594 45.5427 118.781 45.7299C118.968 45.9171 119.249 46.1043 119.53 46.1043C119.811 46.1043 119.904 46.1043 120.091 45.9171V46.0107Z" fill="white"/>
<path d="M124.303 42.8282C124.491 42.7346 124.772 42.641 125.052 42.641V43.7642H124.772C124.397 43.7642 124.21 43.7642 124.023 44.0451C123.835 44.3259 123.742 44.5131 123.742 44.8875V47.0403H122.619V42.641H123.742V43.2962C123.929 43.109 124.023 42.9218 124.303 42.7346V42.8282Z" fill="white"/>
<path d="M132.54 43.109C132.915 43.4834 133.008 43.8579 133.008 44.5131V47.0403H131.885V44.6067C131.885 44.2323 131.885 44.0451 131.604 43.8579C131.417 43.6707 131.23 43.577 130.856 43.577C130.481 43.577 130.294 43.577 130.107 43.8579C129.92 44.0451 129.826 44.3259 129.826 44.6067V47.0403H128.703V44.6067C128.703 44.2323 128.703 44.0451 128.422 43.8579C128.235 43.6707 128.048 43.577 127.673 43.577C127.299 43.577 127.112 43.577 126.924 43.8579C126.737 44.0451 126.644 44.3259 126.644 44.6067V47.0403H125.52V42.641H126.644V43.2026C126.831 43.0154 126.924 42.8282 127.205 42.7346C127.486 42.641 127.673 42.5474 127.954 42.5474C128.235 42.5474 128.609 42.5474 128.89 42.7346C129.171 42.9218 129.358 43.109 129.545 43.3898C129.732 43.109 129.92 42.9218 130.2 42.8282C130.481 42.7346 130.762 42.641 131.043 42.641C131.604 42.641 131.979 42.8282 132.353 43.109H132.54Z" fill="white"/>
</g>
<defs>
<clipPath id="clip0_593_2679">
<rect width="146.3" height="65.3342" fill="white" transform="translate(0 0.332886)"/>
</clipPath>
</defs>
</svg>
