<?xml version="1.0" encoding="UTF-8"?>
<svg version="1.1" xmlns="http://www.w3.org/2000/svg" width="512" height="512">
<path d="M0 0 C168.96 0 337.92 0 512 0 C512 168.96 512 337.92 512 512 C343.04 512 174.08 512 0 512 C0 343.04 0 174.08 0 0 Z " fill="#FEFEFE" transform="translate(0,0)"/>
<path d="M0 0 C168.96 0 337.92 0 512 0 C512 168.96 512 337.92 512 512 C343.04 512 174.08 512 0 512 C0 343.04 0 174.08 0 0 Z M135.4453125 23.90234375 C131.85184036 29.1177344 131.74154185 33.68882413 131.875 39.8125 C131.88402344 40.60076172 131.89304688 41.38902344 131.90234375 42.20117188 C131.92577496 44.13424666 131.96164162 46.0671638 132 48 C131.37217117 47.98889694 130.74434235 47.97779388 130.0974884 47.96635437 C123.56017286 47.85569519 117.02312354 47.78030528 110.48510742 47.7253418 C108.04554436 47.70020504 105.60605655 47.66609054 103.16674805 47.62280273 C99.65915354 47.56211771 96.1525551 47.533781 92.64453125 47.51171875 C91.00989677 47.47300911 91.00989677 47.47300911 89.34223938 47.43351746 C88.32155869 47.4331398 87.30087799 47.43276215 86.24926758 47.43237305 C85.35436111 47.42126999 84.45945465 47.41016693 83.53742981 47.39872742 C79.8053106 48.28309512 78.39848865 50.04846136 76 53 C75.50787209 55.70336707 75.32683001 57.777233 75.37358761 60.47291565 C75.36662 61.22007131 75.35965239 61.96722697 75.35247365 62.73702371 C75.33518209 65.24911103 75.35361866 67.75966572 75.37181091 70.27172852 C75.36676746 72.08739963 75.35954018 73.90306577 75.35031277 75.71872044 C75.33133499 80.71462964 75.34365538 85.71005122 75.3610357 90.70594835 C75.37437722 96.09117279 75.35898418 101.47632434 75.34721375 106.86154175 C75.32880876 117.41376004 75.33736857 127.9657935 75.35530197 138.51800609 C75.3693123 147.0919429 75.37322414 155.66582945 75.3698597 164.23977661 C75.36938225 165.45881449 75.36890481 166.67785237 75.3684129 167.9338308 C75.3673866 170.41007448 75.36633124 172.88631816 75.36524714 175.36256182 C75.35667429 197.27201837 75.37337408 219.18138552 75.40307617 241.09082031 C75.43191496 262.36364497 75.43899785 283.63634084 75.42358398 304.90917969 C75.40683317 328.05894264 75.40277619 351.2086444 75.42029434 374.35840893 C75.42213878 376.82568041 75.42397351 379.29295189 75.42579842 381.76022339 C75.42671051 382.97425341 75.4276226 384.18828343 75.42856232 385.43910223 C75.43417469 394.00540195 75.43085403 402.57167186 75.42425346 411.13796997 C75.41653196 421.57361991 75.42323019 432.00914293 75.4484285 442.44476724 C75.46095099 447.77193578 75.46703679 453.09890646 75.45588684 458.42608261 C75.4458799 463.29907295 75.45422817 468.17166788 75.47746802 473.0446099 C75.48264699 474.81101827 75.48103028 476.57746178 75.47207337 478.34385502 C75.46093624 480.73874272 75.47424741 483.13227988 75.49384212 485.52708435 C75.48476331 486.21843204 75.47568449 486.90977973 75.46633056 487.62207735 C75.52001101 490.97065182 75.99804277 492.99654386 77.65798908 495.92773187 C80.61957318 498.5482134 82.05766614 498.626219 85.97833252 498.6292057 C87.82581148 498.64876381 87.82581148 498.64876381 89.71061325 498.66871703 C91.07954011 498.65790643 92.44846331 498.64662313 93.81738281 498.63491821 C95.26992394 498.6406776 96.72245779 498.64861749 98.17497635 498.65855443 C102.17176795 498.67947672 106.16796461 498.66908858 110.16475868 498.65362334 C114.47295847 498.64233558 118.78105413 498.6597597 123.0892334 498.67352295 C131.53102827 498.69578752 139.97260121 498.69093989 148.41440487 498.67645974 C155.27356225 498.66518013 162.13265731 498.66363106 168.99182129 498.66907883 C170.45466675 498.67022807 170.45466675 498.67022807 171.94706464 498.67140054 C173.9280596 498.67299912 175.90905454 498.67462019 177.89004946 498.6762635 C196.47761785 498.69053043 215.06506306 498.67411348 233.65261126 498.64726166 C249.61091713 498.62492203 265.56904116 498.6288019 281.52734375 498.65185547 C300.04716869 498.67859682 318.56688559 498.68915704 337.08672714 498.67379415 C339.06054432 498.67220136 341.0343615 498.67062951 343.00817871 498.66907883 C343.97940273 498.66830745 344.95062674 498.66753607 345.95128179 498.66674132 C352.8043395 498.66241932 359.65732885 498.66972163 366.51037598 498.68147659 C374.85894263 498.69548165 383.20727416 498.69174378 391.55581379 498.66507287 C395.81762958 498.65190769 400.07905297 498.64682793 404.34086609 498.66331863 C408.23941557 498.67817588 412.13720755 498.6701011 416.03568792 498.64343087 C417.44881231 498.63782778 418.86200018 498.64072727 420.27508402 498.65280981 C422.19056827 498.66793664 424.10623083 498.64948323 426.02166748 498.6292057 C427.08727276 498.62839394 428.15287804 498.62758218 429.25077438 498.62674582 C432.15619851 498.19557831 432.15619851 498.19557831 434.34201092 495.92773187 C436.35607943 492.37122319 436.5584028 489.50551072 436.50615788 485.52708435 C436.51227123 484.77992869 436.51838459 484.03277303 436.52468321 483.26297629 C436.5403247 480.75108968 436.52740084 478.24016289 436.5146637 475.72827148 C436.5199871 473.91260176 436.52705159 472.09693644 436.53571075 470.28127956 C436.55439221 465.28544266 436.54801419 460.28990108 436.53755772 455.29405165 C436.53058135 449.90882731 436.5465517 444.52366461 436.55955505 439.13845825 C436.58122612 428.58627255 436.58106026 418.03419456 436.57292951 407.48199391 C436.56663656 398.9080598 436.56776007 390.33415716 436.57420158 381.76022339 C436.57555407 379.93166657 436.57555407 379.93166657 436.57693387 378.0661692 C436.57878502 375.58992552 436.58064758 373.11368184 436.58252143 370.63743818 C436.59911057 347.40301599 436.59037104 324.16865448 436.57353585 300.93423593 C436.55883618 279.66300646 436.57346914 258.3919182 436.60230602 237.12070692 C436.63167585 215.29431952 436.64267945 193.46799737 436.63312382 171.64159107 C436.63210123 169.1743196 436.63110662 166.70704811 436.6301403 164.23977661 C436.62942572 162.41873158 436.62942572 162.41873158 436.6286967 160.56089777 C436.62652947 151.99458345 436.63635298 143.42833069 436.65091133 134.86203003 C436.66839881 124.4263685 436.66836882 113.9908871 436.64555968 103.55523276 C436.63438518 98.22801725 436.63132747 92.90111951 436.64986038 87.57391739 C436.66659562 82.70086302 436.66040895 77.82840531 436.63564359 72.9553901 C436.63073696 71.18897772 436.63433903 69.42251785 436.64713103 67.65614498 C436.66322992 65.26100874 436.64874737 62.86795654 436.62641239 60.47291565 C436.63840407 59.78156796 436.65039575 59.09022027 436.66275081 58.37792265 C436.58990845 54.57189456 436.05303441 53.06519824 433.61706585 50.07052231 C430.68888639 47.75385882 429.51321474 47.38590867 425.8425293 47.43237305 C424.84186935 47.4327507 423.84120941 47.43312836 422.81022644 47.43351746 C421.7423439 47.45932388 420.67446136 47.48513031 419.57421875 47.51171875 C417.92012749 47.52233086 417.92012749 47.52233086 416.23262024 47.53315735 C412.71688483 47.56110511 409.20275257 47.62384835 405.6875 47.6875 C403.30145532 47.71258219 400.91538563 47.73539549 398.52929688 47.75585938 C392.68565263 47.81093308 386.84294085 47.89456455 381 48 C381.01885254 47.04665771 381.03770508 46.09331543 381.05712891 45.11108398 C381.07912354 43.22885132 381.07912354 43.22885132 381.1015625 41.30859375 C381.12041504 40.06650146 381.13926758 38.82440918 381.15869141 37.54467773 C380.83742972 30.36868009 377.52865823 24.6858202 372.67578125 19.5078125 C366.75827307 14.18343451 360.97370004 13.32972076 353.11328125 13.62890625 C345.04998026 14.59002745 340.87947089 18.7097694 335.6640625 24.68359375 C330.09407243 32.43712452 332 37.38357417 332 48 C314.84 48 297.68 48 280 48 C280 42.72 280 37.44 280 32 C277.30101512 24.40910503 274.04769216 19.95097894 267 16 C260.68225814 13.02148875 253.88714551 12.83113806 247.20703125 14.83984375 C239.06609141 18.49772443 235.25202669 23.86993329 232 32 C232 37.28 232 42.56 232 48 C214.84 48 197.68 48 180 48 C180 42.72 180 37.44 180 32 C177.70465408 24.81456929 173.09473225 20.37834054 167 16 C154.96331595 9.9423224 143.5502437 14.42145911 135.4453125 23.90234375 Z " fill="#FEFEFE" transform="translate(0,0)"/>
<path d="M0 0 C6.47216739 3.84757297 10.93730802 9.68702006 13.6875 16.5625 C13.6875 21.8425 13.6875 27.1225 13.6875 32.5625 C30.8475 32.5625 48.0075 32.5625 65.6875 32.5625 C65.6875 27.2825 65.6875 22.0025 65.6875 16.5625 C68.38648488 8.97160503 71.63980784 4.51347894 78.6875 0.5625 C85.00071963 -2.41387924 91.86721312 -2.66695697 98.515625 -0.52734375 C107.05873464 3.45006208 109.93012552 7.79529288 113.6875 16.5625 C113.6875 21.8425 113.6875 27.1225 113.6875 32.5625 C130.8475 32.5625 148.0075 32.5625 165.6875 32.5625 C165.6875 27.2825 165.6875 22.0025 165.6875 16.5625 C168.27731806 9.00023126 173.03380625 3.82779012 179.8125 -0.375 C186.30794812 -2.72098578 194.72932416 -2.7152087 201.0625 0.0625 C206.99442512 3.62416329 212.1145468 9.37289064 214.2043457 16.03417969 C214.83505166 19.33462988 214.78705442 22.47822316 214.75390625 25.8359375 C214.73952515 27.72578369 214.73952515 27.72578369 214.72485352 29.65380859 C214.71252686 30.61367676 214.7002002 31.57354492 214.6875 32.5625 C215.30280075 32.55139694 215.9181015 32.54029388 216.55204773 32.52885437 C222.95959956 32.41818503 229.36687968 32.3428012 235.77514648 32.2878418 C238.16620919 32.26270685 240.55719514 32.22859367 242.94799805 32.18530273 C246.38609764 32.12460939 249.82318096 32.09627928 253.26171875 32.07421875 C254.32960129 32.04841232 255.39748383 32.0226059 256.49772644 31.99601746 C257.49838638 31.9956398 258.49904633 31.99526215 259.5300293 31.99487305 C260.40717087 31.98376999 261.28431244 31.97266693 262.18803406 31.96122742 C265.89077157 32.85195952 267.30517606 34.63377248 269.6875 37.5625 C270.17962791 40.26586707 270.36066999 42.339733 270.31391239 45.03541565 C270.32088 45.78257131 270.32784761 46.52972697 270.33502635 47.29952371 C270.35231791 49.81161103 270.33388134 52.32216572 270.31568909 54.83422852 C270.32073254 56.64989963 270.32795982 58.46556577 270.33718723 60.28122044 C270.35616501 65.27712964 270.34384462 70.27255122 270.3264643 75.26844835 C270.31312278 80.65367279 270.32851582 86.03882434 270.34028625 91.42404175 C270.35869124 101.97626004 270.35013143 112.5282935 270.33219803 123.08050609 C270.3181877 131.6544429 270.31427586 140.22832945 270.3176403 148.80227661 C270.31811775 150.02131449 270.31859519 151.24035237 270.3190871 152.4963308 C270.3201134 154.97257448 270.32116876 157.44881816 270.32225286 159.92506182 C270.33082571 181.83451837 270.31412592 203.74388552 270.28442383 225.65332031 C270.25558504 246.92614497 270.24850215 268.19884084 270.26391602 289.47167969 C270.28066683 312.62144264 270.28472381 335.7711444 270.26720566 358.92090893 C270.26536122 361.38818041 270.26352649 363.85545189 270.26170158 366.32272339 C270.26078949 367.53675341 270.2598774 368.75078343 270.25893768 370.00160223 C270.25332531 378.56790195 270.25664597 387.13417186 270.26324654 395.70046997 C270.27096804 406.13611991 270.26426981 416.57164293 270.2390715 427.00726724 C270.22654901 432.33443578 270.22046321 437.66140646 270.23161316 442.98858261 C270.2416201 447.86157295 270.23327183 452.73416788 270.21003198 457.6071099 C270.20485301 459.37351827 270.20646972 461.13996178 270.21542663 462.90635502 C270.22656376 465.30124272 270.21325259 467.69477988 270.19365788 470.08958435 C270.20273669 470.78093204 270.21181551 471.47227973 270.22116944 472.18457735 C270.16748899 475.53315182 269.68945723 477.55904386 268.02951092 480.49023187 C265.06792682 483.1107134 263.62983386 483.188719 259.70916748 483.1917057 C257.86168852 483.21126381 257.86168852 483.21126381 255.97688675 483.23121703 C254.60795989 483.22040643 253.23903669 483.20912313 251.87011719 483.19741821 C250.41757606 483.2031776 248.96504221 483.21111749 247.51252365 483.22105443 C243.51573205 483.24197672 239.51953539 483.23158858 235.52274132 483.21612334 C231.21454153 483.20483558 226.90644587 483.2222597 222.5982666 483.23602295 C214.15647173 483.25828752 205.71489879 483.25343989 197.27309513 483.23895974 C190.41393775 483.22768013 183.55484269 483.22613106 176.69567871 483.23157883 C175.23283325 483.23272807 175.23283325 483.23272807 173.74043536 483.23390054 C171.7594404 483.23549912 169.77844546 483.23712019 167.79745054 483.2387635 C149.20988215 483.25303043 130.62243694 483.23661348 112.03488874 483.20976166 C96.07658287 483.18742203 80.11845884 483.1913019 64.16015625 483.21435547 C45.64033131 483.24109682 27.12061441 483.25165704 8.60077286 483.23629415 C6.62695568 483.23470136 4.6531385 483.23312951 2.67932129 483.23157883 C1.22248527 483.23042176 1.22248527 483.23042176 -0.26378179 483.22924132 C-7.1168395 483.22491932 -13.96982885 483.23222163 -20.82287598 483.24397659 C-29.17144263 483.25798165 -37.51977416 483.25424378 -45.86831379 483.22757287 C-50.13012958 483.21440769 -54.39155297 483.20932793 -58.65336609 483.22581863 C-62.55191557 483.24067588 -66.44970755 483.2326011 -70.34818792 483.20593087 C-71.76131231 483.20032778 -73.17450018 483.20322727 -74.58758402 483.21530981 C-76.50306827 483.23043664 -78.41873083 483.21198323 -80.33416748 483.1917057 C-81.39977276 483.19089394 -82.46537804 483.19008218 -83.56327438 483.18924582 C-86.3125 482.5625 -86.3125 482.5625 -88.65451092 480.49023187 C-90.66857943 476.93372319 -90.8709028 474.06801072 -90.81865788 470.08958435 C-90.82477123 469.34242869 -90.83088459 468.59527303 -90.83718321 467.82547629 C-90.8528247 465.31358968 -90.83990084 462.80266289 -90.8271637 460.29077148 C-90.8324871 458.47510176 -90.83955159 456.65943644 -90.84821075 454.84377956 C-90.86689221 449.84794266 -90.86051419 444.85240108 -90.85005772 439.85655165 C-90.84308135 434.47132731 -90.8590517 429.08616461 -90.87205505 423.70095825 C-90.89372612 413.14877255 -90.89356026 402.59669456 -90.88542951 392.04449391 C-90.87913656 383.4705598 -90.88026007 374.89665716 -90.88670158 366.32272339 C-90.88760324 365.10368551 -90.88850489 363.88464763 -90.88943387 362.6286692 C-90.89128502 360.15242552 -90.89314758 357.67618184 -90.89502143 355.19993818 C-90.91161057 331.96551599 -90.90287104 308.73115448 -90.88603585 285.49673593 C-90.87133618 264.22550646 -90.88596914 242.9544182 -90.91480602 221.68320692 C-90.94417585 199.85681952 -90.95517945 178.03049737 -90.94562382 156.20409107 C-90.94460123 153.7368196 -90.94360662 151.26954811 -90.9426403 148.80227661 C-90.94216391 147.58824659 -90.94168752 146.37421657 -90.9411967 145.12339777 C-90.93902947 136.55708345 -90.94885298 127.99083069 -90.96341133 119.42453003 C-90.98089881 108.9888685 -90.98086882 98.5533871 -90.95805968 88.11773276 C-90.94688518 82.79051725 -90.94382747 77.46361951 -90.96236038 72.13641739 C-90.97909562 67.26336302 -90.97290895 62.39090531 -90.94814359 57.5178901 C-90.94323696 55.75147772 -90.94683903 53.98501785 -90.95963103 52.21864498 C-90.97572992 49.82350874 -90.96124737 47.43045654 -90.93891239 45.03541565 C-90.95090407 44.34406796 -90.96289575 43.65272027 -90.97525081 42.94042265 C-90.90244023 39.13605535 -90.36525393 37.62741808 -87.93193859 34.63302231 C-84.97695031 32.2972664 -83.76948937 31.94888971 -80.06323242 31.99487305 C-79.04255173 31.9952507 -78.02187103 31.99562836 -76.97026062 31.99601746 C-75.33562614 32.0347271 -75.33562614 32.0347271 -73.66796875 32.07421875 C-71.98058342 32.08483086 -71.98058342 32.08483086 -70.2591095 32.09565735 C-66.67205851 32.12360856 -63.08657788 32.18635283 -59.5 32.25 C-57.06577778 32.27508173 -54.63153105 32.29789511 -52.19726562 32.31835938 C-46.2351428 32.37343774 -40.2739336 32.45707295 -34.3125 32.5625 C-34.32990234 31.38896973 -34.34730469 30.21543945 -34.36523438 29.00634766 C-34.37930777 27.45475619 -34.39295737 25.90316085 -34.40625 24.3515625 C-34.41881836 23.57949463 -34.43138672 22.80742676 -34.44433594 22.01196289 C-34.48945734 14.99182545 -33.35532247 10.73872387 -28.44140625 5.609375 C-20.63198337 -1.65383116 -10.25066847 -4.45415951 0 0 Z M-76.3125 123.5625 C-76.3125 237.4125 -76.3125 351.2625 -76.3125 468.5625 C33.2475 468.5625 142.8075 468.5625 255.6875 468.5625 C255.6875 354.7125 255.6875 240.8625 255.6875 123.5625 C146.1275 123.5625 36.5675 123.5625 -76.3125 123.5625 Z " fill="#050505" transform="translate(166.3125,15.4375)"/>
<path d="M0 0 C13.86 0 27.72 0 42 0 C42.495 8.91 42.495 8.91 43 18 C45.9046355 25.6246682 49.81743082 29.23385886 57 33 C64.08922239 35.36307413 71.00382618 34.3372795 77.73828125 31.32421875 C84.07191567 27.61592502 87.15547888 21.98976425 89 15 C89.33 10.05 89.66 5.1 90 0 C107.16 0 124.32 0 142 0 C142.33 5.61 142.66 11.22 143 17 C145.29466834 23.7922183 149.07075797 27.96140307 155 32 C161.01787446 34.51656568 167.35670385 35.23277694 173.5859375 33.125 C181.53661764 29.49586072 185.77010189 25.07474526 189 17 C189.33 11.39 189.66 5.78 190 0 C207.16 0 224.32 0 242 0 C242.33 4.95 242.66 9.9 243 15 C245.1421538 22.33275723 247.44266952 26.93686884 254 31 C259.70526252 34.11950944 265.57568458 34.91921842 272 34 C280.60591926 31.20645553 284.56543899 25.76048176 289 18 C289.33 12.06 289.66 6.12 290 0 C303.86 0 317.72 0 332 0 C332 20.46 332 40.92 332 62 C222.44 62 112.88 62 0 62 C0 41.54 0 21.08 0 0 Z " fill="#FDFDFD" transform="translate(90,62)"/>
<path d="M0 0 C0.88767213 -0.00782324 1.77534425 -0.01564648 2.68991554 -0.02370679 C3.66606728 -0.01701463 4.64221903 -0.01032246 5.64795113 -0.00342751 C7.20233774 -0.01044746 7.20233774 -0.01044746 8.78812611 -0.01760924 C12.27742828 -0.0296218 15.76634223 -0.02007736 19.25564766 -0.01066017 C21.75041115 -0.01472313 24.24517284 -0.02006345 26.73993111 -0.02659035 C32.82329246 -0.03887806 38.90650019 -0.03704029 44.98985563 -0.02835242 C49.93397296 -0.02158336 54.87805916 -0.02065579 59.82217979 -0.02392387 C60.52527146 -0.02438357 61.22836314 -0.02484327 61.95276061 -0.0253169 C63.38100537 -0.02627606 64.80925011 -0.0272487 66.23749484 -0.02823468 C79.63933066 -0.0367951 93.04110498 -0.02694488 106.44293071 -0.01083358 C117.94368491 0.00256437 129.44434824 0.00024712 140.94510078 -0.01358986 C154.29515203 -0.02964424 167.6451493 -0.03596491 180.99520886 -0.02675307 C182.41887608 -0.02579741 183.84254332 -0.0248543 185.26621056 -0.02392387 C186.31695378 -0.02322963 186.31695378 -0.02322963 187.38892414 -0.02252137 C192.32639328 -0.01993061 197.2638282 -0.02430444 202.20129204 -0.03136253 C208.8480409 -0.04065497 215.49464461 -0.03403898 222.14138603 -0.01667976 C224.58392234 -0.01270617 227.02647306 -0.0138638 229.46900368 -0.02046776 C232.79756685 -0.02863882 236.12557582 -0.01841476 239.45410347 -0.00342751 C240.91163892 -0.01346575 240.91163892 -0.01346575 242.39861953 -0.02370679 C250.97236058 0.05141403 250.97236058 0.05141403 254.67801094 3.37752342 C255.22687608 7.76844454 255.15467176 9.6625322 252.67801094 13.37752342 C249.89810487 14.30415878 248.23794227 14.50503871 245.36884594 14.5117445 C244.04163779 14.51843127 244.04163779 14.51843127 242.68761736 14.52525312 C241.22820299 14.52497657 241.22820299 14.52497657 239.7393055 14.52469444 C238.18998586 14.53020947 238.18998586 14.53020947 236.60936683 14.53583592 C233.13167358 14.54689155 229.65401017 14.55071974 226.17630196 14.55452538 C223.68976941 14.56078844 221.2032378 14.5674351 218.71670723 14.5744381 C211.24438768 14.59367598 203.77207607 14.60426629 196.29973903 14.61316589 C192.78218698 14.61754872 189.26463643 14.62291542 185.74708557 14.62815475 C174.05724494 14.64516383 162.36740524 14.65965968 150.67755413 14.6669035 C147.64442188 14.66881342 144.61128964 14.67073375 141.57815742 14.67268944 C140.82427763 14.67317318 140.07039784 14.67365692 139.29367321 14.67415532 C127.07155115 14.68246203 114.84952675 14.70781113 102.62744737 14.74027012 C90.08419346 14.77331111 77.54098925 14.79134944 64.99769157 14.79454774 C57.9530007 14.79671524 50.90845239 14.80549917 43.86380386 14.83100891 C37.24085795 14.85493621 30.61812307 14.8585603 23.99512672 14.84824753 C21.56022158 14.84774985 19.12530416 14.85413814 16.69043732 14.86780357 C13.37454528 14.88537723 10.05959106 14.87848772 6.74370003 14.86527061 C5.77298783 14.87623986 4.80227564 14.88720911 3.80214792 14.89851075 C-2.66216044 14.83600375 -2.66216044 14.83600375 -5.92375088 12.56969547 C-7.96094126 9.37576766 -7.79309537 7.07907298 -7.32198906 3.37752342 C-5.14622817 0.45062592 -3.57629034 0.0022688 0 0 Z " fill="#020202" transform="translate(132.32198905944824,338.6224765777588)"/>
<path d="M0 0 C0.89177222 -0.00782324 1.78354444 -0.01564648 2.70234007 -0.02370679 C3.68306488 -0.01701463 4.66378969 -0.01032246 5.67423344 -0.00342751 C6.7152803 -0.00810748 7.75632716 -0.01278745 8.8289209 -0.01760924 C12.33437599 -0.02962193 15.83944466 -0.02007734 19.34490299 -0.01066017 C21.85114108 -0.0147231 24.35737738 -0.0200634 26.86361027 -0.02659035 C32.97470434 -0.03887781 39.08565416 -0.03704057 45.19675022 -0.02835242 C50.16280592 -0.02158386 55.12883065 -0.02065557 60.09488964 -0.02392387 C60.8010454 -0.02438357 61.50720115 -0.02484327 62.23475556 -0.0253169 C63.66920305 -0.02627606 65.10365052 -0.0272487 66.53809799 -0.02823468 C79.99760745 -0.03679485 93.45705569 -0.02694495 106.91655511 -0.01083358 C118.46936192 0.00256728 130.02207829 0.00024467 141.57488346 -0.01358986 C154.9838887 -0.02963963 168.39284021 -0.03596775 181.80185372 -0.02675307 C183.23140084 -0.0257974 184.66094797 -0.02485429 186.09049511 -0.02392387 C187.14559557 -0.02322963 187.14559557 -0.02322963 188.22201119 -0.02252137 C193.18249239 -0.01992945 198.14293956 -0.02430688 203.10341549 -0.03136253 C209.77890598 -0.04064863 216.45419902 -0.03404954 223.12968159 -0.01667976 C225.58392585 -0.01270327 228.03818445 -0.01386871 230.49242306 -0.02046776 C233.83447296 -0.02862735 237.17596912 -0.01842888 240.51798344 -0.00342751 C241.49647753 -0.01011967 242.47497162 -0.01681184 243.48311704 -0.02370679 C244.37749701 -0.01588355 245.27187698 -0.00806031 246.19335938 0 C246.96484375 0.00048706 247.73632812 0.00097411 248.53119081 0.00147593 C251.28368169 0.48778616 252.65650852 1.4483123 254.65960026 3.37752342 C255.22210026 6.81502342 255.22210026 6.81502342 254.65960026 10.37752342 C252.5312598 12.8330857 250.78896346 14.18336159 247.53965175 14.74198818 C244.84548176 14.89565213 242.17890149 14.91035523 239.48038578 14.88545799 C238.44579717 14.89169796 237.41120856 14.89793792 236.34526879 14.90436697 C232.87356186 14.92034006 229.40255281 14.90767536 225.93084049 14.89510155 C223.44400974 14.90052069 220.9571822 14.90764217 218.47036076 14.91634178 C212.4143044 14.93270477 206.35852263 14.93028659 200.30247694 14.91869122 C195.38127487 14.90965862 190.46012838 14.90843213 185.5389204 14.91278648 C184.83858635 14.91339942 184.1382523 14.91401235 183.416696 14.91464385 C181.99400558 14.91592275 180.57131517 14.9172196 179.14862479 14.91853422 C165.80831083 14.92994029 152.46810683 14.9168255 139.1278109 14.89533275 C127.67847276 14.8774578 116.22929681 14.88056904 104.77996159 14.8990078 C91.48592729 14.92040734 78.19198933 14.92884577 64.89794022 14.91655874 C63.48078161 14.91528453 62.06362299 14.91402705 60.64646435 14.91278648 C59.94918224 14.91216938 59.25190013 14.91155228 58.53348825 14.91091648 C53.61705622 14.90746111 48.70068524 14.91329584 43.78426266 14.9227047 C37.16946059 14.93508555 30.55491803 14.92628835 23.94012928 14.90312767 C21.50846143 14.89782585 19.07676784 14.89937934 16.64511013 14.90817833 C13.33366471 14.91905869 10.02321268 14.90546024 6.71183109 14.88545799 C5.25780916 14.89884232 5.25780916 14.89884232 3.77441305 14.91249704 C-2.6805053 14.8365179 -2.6805053 14.8365179 -5.94132042 12.56843376 C-7.9802657 9.37551523 -7.81149182 7.07896118 -7.34039974 3.37752342 C-5.1609314 0.44295268 -3.58345936 0.0022628 0 0 Z " fill="#060606" transform="translate(132.34039974212646,269.6224765777588)"/>
<path d="M0 0 C1.34380847 -0.01173486 1.34380847 -0.01173486 2.7147646 -0.02370679 C3.70006248 -0.01701463 4.68536036 -0.01032246 5.70051575 -0.00342751 C6.74635173 -0.00810748 7.79218771 -0.01278745 8.86971569 -0.01760924 C12.39132371 -0.02962206 15.91254708 -0.02007731 19.43415833 -0.01066017 C21.95187101 -0.01472307 24.46958192 -0.02006336 26.98728943 -0.02659035 C33.12612176 -0.03887756 39.26481049 -0.03704084 45.4036448 -0.02835242 C50.39163889 -0.02158436 55.37960213 -0.02065535 60.36759949 -0.02392387 C61.07681933 -0.02438357 61.78603917 -0.02484327 62.51675051 -0.0253169 C63.95740073 -0.02627605 65.39805093 -0.02724869 66.83870113 -0.02823468 C80.35588425 -0.0367946 93.87300639 -0.02694501 107.39017951 -0.01083358 C118.99503894 0.00257017 130.59980834 0.00024224 142.20466614 -0.01358986 C155.67262537 -0.02963506 169.14053112 -0.03597057 182.60849857 -0.02675307 C184.04392559 -0.02579739 185.47935262 -0.02485428 186.91477966 -0.02392387 C187.97423736 -0.02322963 187.97423736 -0.02322963 189.05509824 -0.02252137 C194.0385915 -0.01992829 199.02205092 -0.0243093 204.00553894 -0.03136253 C210.70975323 -0.04064233 217.41377077 -0.03405998 224.11797714 -0.01667976 C226.58392935 -0.01270039 229.04989583 -0.01387357 231.51584244 -0.02046776 C234.87137906 -0.028616 238.22636242 -0.01844291 241.5818634 -0.00342751 C242.56716128 -0.01011967 243.55245916 -0.01681184 244.56761456 -0.02370679 C245.46348687 -0.01588355 246.35935919 -0.00806031 247.28237915 0 C248.05728101 0.00048706 248.83218287 0.00097411 249.6305666 0.00147593 C252.21184736 0.48425374 253.09339635 1.28022187 254.64118958 3.37752342 C255.29610762 9.49009182 255.29610762 9.49009182 253.39017773 12.07267821 C251.19291498 13.71196191 250.007372 13.75333408 247.28237915 13.75504684 C245.93857068 13.76678171 245.93857068 13.76678171 244.56761456 13.77875364 C243.58231668 13.77206147 242.5970188 13.76536931 241.5818634 13.75847435 C240.53602742 13.76315432 239.49019144 13.76783429 238.41266346 13.77265608 C234.89105544 13.78466891 231.36983207 13.77512416 227.84822083 13.76570702 C225.33050814 13.76976992 222.81279723 13.7751102 220.29508972 13.78163719 C214.15625739 13.79392441 208.01756866 13.79208768 201.87873435 13.78339927 C196.89074026 13.77663121 191.90277702 13.77570219 186.91477966 13.77897072 C186.20555982 13.77943042 185.49633999 13.77989012 184.76562864 13.78036375 C183.32497842 13.7813229 181.88432822 13.78229554 180.44367802 13.78328152 C166.9264949 13.79184145 153.40937276 13.78199185 139.89219964 13.76588042 C128.28734021 13.75247668 116.68257081 13.7548046 105.07771301 13.7686367 C91.60975378 13.7846819 78.14184803 13.79101742 64.67388058 13.78179991 C63.23845356 13.78084424 61.80302653 13.77990113 60.36759949 13.77897072 C59.30814179 13.77827648 59.30814179 13.77827648 58.22728091 13.77756821 C53.24378765 13.77497514 48.26032823 13.77935615 43.27684021 13.78640938 C36.57262592 13.79568917 29.86860838 13.78910682 23.16440201 13.77172661 C20.6984498 13.76774724 18.23248332 13.76892042 15.76653671 13.7755146 C12.41100009 13.78366284 9.05601673 13.77348975 5.70051575 13.75847435 C4.71521787 13.76516652 3.72991999 13.77185868 2.7147646 13.77875364 C1.81889228 13.7709304 0.92301996 13.76310715 0 13.75504684 C-0.77490186 13.75455979 -1.54980371 13.75407273 -2.34818745 13.75357091 C-4.92946821 13.2707931 -5.8110172 12.47482497 -7.35881042 10.37752342 C-8.01372847 4.26495503 -8.01372847 4.26495503 -6.10779858 1.68236864 C-3.91053583 0.04308493 -2.72499285 0.00171277 0 0 Z " fill="#000000" transform="translate(132.3588104248047,200.6224765777588)"/>
<path d="M0 0 C1.3290311 -0.01041829 1.3290311 -0.01041829 2.68491131 -0.02104706 C5.65991077 -0.03937333 8.63411787 -0.02903707 11.60914612 -0.01878357 C13.73953348 -0.0258392 15.86991582 -0.0345827 18.00028992 -0.04489136 C23.7916082 -0.06743515 29.58265384 -0.06443388 35.37399936 -0.05556989 C40.20522586 -0.05046768 45.03640077 -0.05774634 49.86762196 -0.06504196 C61.26311708 -0.08205689 72.65847835 -0.07845909 84.05397034 -0.06175232 C95.81814255 -0.04482828 107.58194379 -0.06066606 119.34607548 -0.0929752 C129.43959695 -0.11964805 139.53300279 -0.12695334 149.62655598 -0.11846012 C155.65797568 -0.11352434 161.6891721 -0.11578188 167.72056389 -0.13624763 C173.39156058 -0.15456844 179.06202252 -0.14868975 184.73299026 -0.12404823 C186.81592732 -0.11902897 188.89890486 -0.12255885 190.98180962 -0.13519669 C193.82247666 -0.1510704 196.66137058 -0.13623002 199.50195312 -0.11352539 C200.74251777 -0.13127898 200.74251777 -0.13127898 202.00814432 -0.14939123 C206.26300829 -0.08015479 207.87037784 0.17302664 211.36134434 2.85861301 C213.31446838 5.5146637 213.31446838 5.5146637 213.37696838 8.6396637 C212.11404665 12.05698132 211.49340169 12.79148979 208.31446838 14.5146637 C205.33172476 14.80425739 202.55964387 14.91952859 199.57751465 14.89561462 C198.68599923 14.9002946 197.79448382 14.90497457 196.87595278 14.90979636 C193.88256994 14.92178184 190.8896419 14.91227523 187.89625549 14.90284729 C185.75277438 14.90691138 183.60929535 14.91225234 181.46582031 14.91877747 C175.63954321 14.93247534 169.81342514 14.92714239 163.98714519 14.91764021 C157.89731965 14.91005742 151.80750794 14.91708528 145.71768188 14.92179871 C135.49104867 14.92725987 125.26448041 14.92005473 115.03785706 14.90577698 C103.20329268 14.88944546 91.36888331 14.89474123 79.53432268 14.91125619 C69.38394718 14.92485557 59.23361842 14.92679844 49.08323675 14.91894019 C43.0161682 14.91425571 36.94917259 14.91366015 30.88210869 14.92354965 C25.18004256 14.93219466 19.47817697 14.92624257 13.77613258 14.90886688 C11.67945565 14.90488902 9.58276194 14.90605815 7.48609161 14.91265488 C4.63197684 14.92080908 1.77851147 14.91062322 -1.07556152 14.89561462 C-1.91232125 14.90230679 -2.74908097 14.90899895 -3.61119705 14.91589391 C-9.23724422 14.85819998 -9.23724422 14.85819998 -11.39334768 13.20591223 C-13.56365089 10.36535523 -13.10701578 7.94674899 -12.68553162 4.5146637 C-9.4055766 -0.32515946 -5.3796433 -0.05345929 0 0 Z " fill="#040404" transform="translate(137.68553161621094,407.48533630371094)"/>
<path d="M0 0 C3.1293173 0.74342897 4.94179824 2.18840477 7.12109375 4.50390625 C9.77236973 9.80645822 8.43505445 18.36260377 8.47119141 24.26953125 C8.48773421 26.25207268 8.5150021 28.23455487 8.55322266 30.21679688 C8.60810739 33.07843906 8.62988422 35.93868295 8.64453125 38.80078125 C8.66720062 39.68223816 8.68987 40.56369507 8.71322632 41.47186279 C8.6985106 45.77790079 8.48356058 48.62452916 5.73095703 52.05126953 C2.42066223 55.16214152 0.65053554 55.53097977 -3.7265625 55.7421875 C-7.09047238 55.36977642 -8.66746591 53.98339997 -10.87890625 51.50390625 C-13.60859025 47.57424834 -13.23813053 43.21441285 -13.28515625 38.609375 C-13.2965564 37.74379471 -13.30795654 36.87821442 -13.31970215 35.98640442 C-13.33856988 34.15659449 -13.35165733 32.3267171 -13.359375 30.49682617 C-13.37877083 27.71085747 -13.44082296 24.92785332 -13.50390625 22.14257812 C-13.51696981 20.36069452 -13.52746939 18.57878991 -13.53515625 16.796875 C-13.55984985 15.97060104 -13.58454346 15.14432709 -13.60998535 14.29301453 C-13.56743683 8.71134116 -12.22520873 5.85404506 -8.40065002 1.78894043 C-5.60753545 -0.56970086 -3.46018526 -0.2742474 0 0 Z " fill="#F9F9F9" transform="translate(157.87890625,27.49609375)"/>
<path d="M0 0 C3.37495058 0.02428022 5.14420406 0.59958588 7.75 2.75 C11.9039689 7.00528521 11.50106864 10.41726395 11.55078125 16.109375 C11.56288887 17.41554779 11.56288887 17.41554779 11.57524109 18.74810791 C11.58908507 20.59409594 11.59980582 22.4401096 11.60766602 24.28613281 C11.62484801 27.10010835 11.66872668 29.91289952 11.71289062 32.7265625 C11.7230204 34.5208247 11.73153561 36.31509689 11.73828125 38.109375 C11.75578934 38.94708435 11.77329742 39.7847937 11.79133606 40.64788818 C11.77148557 46.03478386 10.91081625 49.10928423 7.3125 53.375 C4.18884385 55.3167322 2.4504311 55.37983969 -1.25 55.25 C-4.99869446 54.29578686 -6.32759442 53.37026478 -8.6875 50.375 C-9.80987281 48.13025437 -9.83627721 46.86309601 -9.88037109 44.37182617 C-9.89643402 43.54724411 -9.91249695 42.72266205 -9.92904663 41.87309265 C-9.97352528 38.10021801 -10.01456263 34.32751891 -10.03759766 30.55444336 C-10.05415551 28.56506653 -10.08144328 26.57574915 -10.11962891 24.58666992 C-10.17442264 21.71762245 -10.19627517 18.84996913 -10.2109375 15.98046875 C-10.23360687 15.09385056 -10.25627625 14.20723236 -10.27963257 13.29374695 C-10.26410523 8.749807 -10.18034911 6.98110017 -7.21728516 3.3371582 C-6.38245605 2.689646 -5.54762695 2.04213379 -4.6875 1.375 C-3.6875 0.375 -3.6875 0.375 0 0 Z " fill="#F9F9F9" transform="translate(355.6875,27.625)"/>
<path d="M0 0 C2.8100346 1.79363911 4.50940468 3.01880935 6 6 C6.11394097 7.36174485 6.1692656 8.72867119 6.19287109 10.0949707 C6.21696548 11.36187492 6.21696548 11.36187492 6.24154663 12.65437317 C6.28601545 16.51884152 6.3270622 20.38313834 6.35009766 24.24780273 C6.36665652 26.28567933 6.39394558 28.32349786 6.43212891 30.36108398 C6.4869124 33.2996228 6.50877376 36.23680045 6.5234375 39.17578125 C6.54610687 40.08427322 6.56877625 40.9927652 6.59213257 41.92878723 C6.57679848 46.52389273 6.51427472 48.36470451 3.52978516 52.05151367 C2.69495605 52.69451416 1.86012695 53.33751465 1 54 C0.505 54.495 0.505 54.495 0 55 C-7.07616708 55.58968059 -7.07616708 55.58968059 -10.9375 53.125 C-13.71421408 50.26414307 -14.12586384 48.77182946 -14.17700195 44.9050293 C-14.18983719 44.06042648 -14.20267242 43.21582367 -14.21589661 42.34562683 C-14.22328354 41.43106216 -14.23067047 40.5164975 -14.23828125 39.57421875 C-14.246353 38.63447708 -14.25442474 37.69473541 -14.26274109 36.72651672 C-14.27658553 34.7350957 -14.28730607 32.7436509 -14.29516602 30.75219727 C-14.31237279 27.70999032 -14.35625482 24.66887175 -14.40039062 21.62695312 C-14.41051804 19.69271633 -14.41903399 17.75847029 -14.42578125 15.82421875 C-14.44328934 14.91572678 -14.46079742 14.0072348 -14.47883606 13.07121277 C-14.46437555 8.8497646 -14.37662035 6.60436228 -12.09838867 2.94848633 C-8.43806887 -0.45035164 -4.84584252 -0.69624174 0 0 Z " fill="#FCFCFC" transform="translate(260,28)"/>
<path d="M0 0 C0.625 1.8125 0.625 1.8125 1 4 C0.01 5.485 0.01 5.485 -1 7 C-2.32 7 -3.64 7 -5 7 C-5 5.35 -5 3.7 -5 2 C-4.01 2.33 -3.02 2.66 -2 3 C-1.34 2.01 -0.68 1.02 0 0 Z " fill="#121212" transform="translate(350,413)"/>
</svg>
