<svg width="18" height="18" viewBox="0 0 18 18" fill="none" xmlns="http://www.w3.org/2000/svg">
<path d="M16.5652 1.78125C16.7467 1.78125 16.909 1.85 17.052 1.9875C17.184 2.1195 17.25 2.279 17.25 2.466V15.534C17.25 15.721 17.184 15.8805 17.052 16.0125C16.909 16.15 16.7467 16.2188 16.5652 16.2188H5.55975C5.37825 16.2188 5.216 16.15 5.073 16.0125C4.941 15.8805 4.875 15.721 4.875 15.534V13.125H1.43475C1.25325 13.125 1.091 13.059 0.948 12.927C0.816 12.784 0.75 12.6217 0.75 12.4402V5.55975C0.75 5.37825 0.816 5.216 0.948 5.073C1.091 4.941 1.25325 4.875 1.43475 4.875H4.875V2.466C4.875 2.279 4.941 2.1195 5.073 1.9875C5.216 1.85 5.37825 1.78125 5.55975 1.78125H16.5652ZM4.875 9.8745L5.8485 11.706H7.32525L5.7 9.0495L7.29225 6.43425H5.8815L4.98225 8.0925L4.94925 8.142L4.9245 8.19975C4.7815 7.90825 4.6275 7.614 4.4625 7.317C4.325 7.0255 4.17925 6.73125 4.02525 6.43425H2.532L4.09125 9.066L2.4 11.706H3.8685L4.875 9.8745ZM10.551 15.1875V13.125H5.90625V15.1875H10.551ZM10.551 12.0938V9.51975H9V12.0938H10.551ZM10.551 8.4885V5.90625H9V8.4885H10.551ZM10.551 4.875V2.8125H5.90625V4.875H10.551ZM16.2188 15.1875V13.125H11.5822V15.1875H16.2188ZM16.2188 12.0938V9.51975H11.5822V12.0938H16.2188ZM16.2188 8.4885V5.90625H11.5822V8.4885H16.2188ZM16.2188 4.875V2.8125H11.5822V4.875H16.2188Z" fill="#595959"/>
</svg>
