<svg width="189" height="84" viewBox="0 0 189 84" fill="none" xmlns="http://www.w3.org/2000/svg">
<g clip-path="url(#clip0_563_10210)">
<path d="M36.7601 24.1891C36.7601 23.9484 36.7601 23.467 36.7601 22.9857H29.263C29.263 24.4298 28.9002 25.8739 28.1747 27.1977C25.2726 32.3725 17.8964 32.9742 14.0269 28.5215C12.5758 26.8367 11.9712 24.9112 11.9712 22.9857H4.47409C4.47409 23.5874 4.47409 24.1891 4.47409 24.5501C4.23225 26.7163 0 27.0773 0 29.1232C0 29.6046 1.08829 32.2521 1.45106 32.8539C1.81382 33.4556 2.2975 33.9369 3.14395 33.8166C4.59501 33.8166 6.89251 32.3725 8.22265 33.3352C8.58541 33.5759 9.91555 34.8997 10.2783 35.2607C12.0921 37.3066 8.58541 40.7965 11.0038 42.1203C11.4875 42.361 13.785 43.3238 14.3896 43.4441C14.9942 43.4441 15.5988 43.4441 16.0825 42.9627C17.1708 41.8796 17.7754 39.1117 19.4683 38.9914C20.0729 38.9914 21.6449 38.9914 22.2495 38.9914C24.4261 39.2321 24.9098 43.4441 26.9655 43.4441C27.4491 43.4441 30.1094 42.361 30.714 42C31.3186 41.639 31.8023 41.1576 31.8023 40.4355C31.8023 38.9914 30.3512 36.7049 31.1977 35.3811C31.3186 35.1404 32.7697 33.6963 33.1324 33.3352C35.1881 31.5301 38.6948 35.02 40.0249 32.6132C40.2668 32.1318 41.2342 29.8453 41.3551 29.2435C41.8388 26.4756 37.1228 26.596 36.881 24.0688L36.7601 24.1891Z" fill="#3EBD93"/>
<path d="M37.8481 58.8481C37.4854 56.5616 33.9787 58.0057 33.0113 56.3209C33.0113 56.0802 32.7694 55.8395 32.6485 55.4785C32.4067 54.9971 32.2858 54.5158 32.1648 54.2751C31.8021 52.7106 34.8251 51.1461 34.2205 49.5817C34.0996 49.2206 32.4067 47.4155 31.923 47.1748C31.5602 46.9341 30.9556 46.8138 30.5929 46.9341C29.3836 47.4155 28.2954 49.1003 26.8443 48.7393C26.4815 48.7393 25.2723 48.1375 24.9096 47.8969C23.4585 47.1748 24.0631 44.8883 23.4585 43.6848C23.2167 43.2034 22.8539 42.9628 22.3702 42.9628C21.8865 42.9628 19.8309 42.8424 19.4681 42.9628C19.2263 42.9628 18.8635 43.2034 18.6217 43.2034C17.8961 43.6848 18.017 46.3324 17.4124 47.1748C17.0497 47.6562 15.3568 48.2579 14.7522 48.4986C13.0593 48.9799 11.4873 45.851 9.91532 46.5731C9.55256 46.6934 7.85966 48.3782 7.49689 48.7393C7.13413 49.2206 6.89229 49.702 7.25505 50.3037C7.73874 51.3868 9.55256 52.831 9.06887 54.1547C8.94795 54.5158 8.1015 56.2006 7.85966 56.4413C7.01321 57.2837 5.07847 56.9226 3.99018 57.404C3.50649 57.6447 3.26465 58.1261 3.26465 58.6075C3.26465 58.8481 3.26465 59.5702 3.26465 60.2923H13.6639C13.6639 57.765 14.994 55.3582 17.5334 54.0344C21.4028 52.1089 25.6351 54.2751 27.0861 57.765C27.328 58.4871 27.5698 59.3295 27.5698 60.1719H37.9691C37.9691 59.6905 37.9691 59.2092 37.9691 59.0888L37.8481 58.8481Z" fill="#2F8070"/>
<path d="M55.6238 23.2263V60.0516H48.2476V23.2263H55.6238Z" fill="#05322B"/>
<path d="M70.2554 29.1232V38.3897H82.7103V44.2865H70.2554V54.0344H84.2823V60.0516H62.7583V23.2263H84.2823V29.2435H70.2554V29.1232Z" fill="#05322B"/>
<path d="M116.689 40.0745C115.722 41.7593 114.27 43.2034 112.336 44.2865C110.28 45.3696 107.862 45.851 104.839 45.851H98.6716V59.9312H91.2954V23.106H104.96C107.862 23.106 110.28 23.5874 112.336 24.5501C114.391 25.5129 115.842 26.8367 116.81 28.6418C117.777 30.3266 118.261 32.3725 118.261 34.5387C118.261 36.7049 117.777 38.3897 116.81 40.0745H116.689ZM108.95 38.51C109.917 37.5473 110.401 36.2235 110.401 34.5387C110.401 30.9284 108.345 29.1232 104.355 29.1232H98.4298V39.8338H104.355C106.411 39.8338 107.983 39.3524 108.95 38.3897V38.51Z" fill="#05322B"/>
<path d="M129.991 23.106V30.2063H128.54V23.106H129.991Z" fill="#05322B"/>
<path d="M136.157 25.1519C136.52 25.6332 136.762 26.1146 136.762 26.957V30.2063H135.311V27.0774C135.311 26.596 135.311 26.235 134.948 25.9943C134.706 25.7536 134.465 25.6332 133.981 25.6332C133.497 25.6332 133.255 25.7536 133.014 25.9943C132.772 26.235 132.651 26.596 132.651 27.0774V30.2063H131.2V24.5502H132.651V25.2722C132.893 25.0315 133.134 24.7908 133.376 24.6705C133.618 24.5502 133.981 24.4298 134.344 24.4298C135.069 24.4298 135.553 24.6705 135.916 25.0315L136.157 25.1519Z" fill="#05322B"/>
<path d="M139.785 25.7536V28.5215C139.785 28.7622 139.785 28.8825 139.906 28.8825C139.906 28.8825 140.148 29.0029 140.39 29.0029H140.995V30.2063H140.148C138.939 30.2063 138.334 29.6046 138.334 28.5215V25.8739H137.609V24.6705H138.334V23.2264H139.785V24.6705H140.995V25.8739H139.785V25.7536Z" fill="#05322B"/>
<path d="M147.282 27.7994H143.171C143.171 28.1605 143.292 28.5215 143.655 28.7622C143.896 29.0029 144.259 29.1232 144.622 29.1232C145.106 29.1232 145.589 28.8825 145.71 28.4012H147.282C147.161 28.8825 146.799 29.3639 146.315 29.7249C145.831 30.086 145.227 30.2063 144.622 30.2063C144.017 30.2063 143.534 30.2063 143.171 29.8453C142.687 29.6046 142.445 29.2436 142.204 28.8825C141.962 28.4012 141.841 27.9198 141.841 27.3181C141.841 26.7163 141.841 26.235 142.204 25.7536C142.445 25.2722 142.808 25.0315 143.171 24.7908C143.534 24.5502 144.138 24.4298 144.622 24.4298C145.106 24.4298 145.589 24.4298 146.073 24.7908C146.557 25.1519 146.799 25.3926 147.04 25.7536C147.282 26.1146 147.403 26.7163 147.403 27.1977C147.403 27.6791 147.403 27.5588 147.403 27.7994H147.282ZM145.831 26.8367C145.831 26.4757 145.71 26.235 145.468 25.9943C145.227 25.7536 144.864 25.6332 144.501 25.6332C144.138 25.6332 143.896 25.6332 143.655 25.9943C143.413 26.235 143.292 26.4757 143.171 26.8367H145.831Z" fill="#05322B"/>
<path d="M151.636 24.6705C151.998 24.7908 152.24 25.0315 152.361 25.2722V24.4298H153.812V30.086C153.812 30.5673 153.812 31.0487 153.449 31.5301C153.208 31.8911 152.966 32.2522 152.482 32.4928C152.119 32.7335 151.515 32.8539 150.91 32.8539C150.305 32.8539 149.459 32.6132 148.975 32.2522C148.492 31.8911 148.129 31.4097 148.129 30.6877H149.58C149.58 30.9284 149.822 31.1691 150.064 31.2894C150.305 31.4097 150.668 31.5301 150.91 31.5301C151.152 31.5301 151.636 31.4097 151.877 31.1691C152.119 30.9284 152.24 30.5673 152.24 30.086V29.2436C151.998 29.4842 151.757 29.7249 151.515 29.8453C151.152 29.9656 150.789 30.086 150.426 30.086C150.064 30.086 149.459 29.9656 149.096 29.7249C148.733 29.4842 148.371 29.1232 148.129 28.6418C147.887 28.1605 147.766 27.6791 147.766 27.0774C147.766 26.4756 147.766 25.9943 148.129 25.5129C148.371 25.0315 148.613 24.7908 149.096 24.5501C149.459 24.3095 149.943 24.1891 150.426 24.1891C150.91 24.1891 151.273 24.1891 151.515 24.4298L151.636 24.6705ZM152.24 26.4756C152.119 26.235 151.877 25.9943 151.636 25.8739C151.394 25.7536 151.152 25.6332 150.91 25.6332C150.668 25.6332 150.426 25.6332 150.185 25.8739C149.943 25.9943 149.822 26.235 149.58 26.4756C149.459 26.7163 149.338 26.957 149.338 27.3181C149.338 27.6791 149.338 27.9198 149.58 28.1605C149.701 28.4012 149.943 28.6418 150.185 28.7622C150.426 28.8825 150.668 29.0029 150.91 29.0029C151.152 29.0029 151.394 29.0029 151.636 28.7622C151.877 28.5215 151.998 28.4012 152.24 28.1605C152.361 27.9198 152.482 27.5587 152.482 27.3181C152.482 27.0774 152.482 26.7163 152.24 26.4756Z" fill="#05322B"/>
<path d="M157.44 24.7908C157.682 24.6705 158.044 24.5501 158.407 24.5501V25.9943H158.044C157.561 25.9943 157.319 25.9943 157.077 26.3553C156.835 26.7163 156.714 26.957 156.714 27.4384V30.2063H155.263V24.5501H156.714V25.3925C156.956 25.1519 157.077 24.9112 157.44 24.6705V24.7908Z" fill="#05322B"/>
<path d="M159.374 25.8739C159.616 25.3925 159.858 25.1519 160.342 24.9112C160.705 24.6705 161.188 24.5501 161.672 24.5501C162.156 24.5501 162.518 24.5501 162.76 24.7908C163.123 24.9112 163.365 25.1519 163.486 25.3925V24.5501H164.937V30.2063H163.486V29.3639C163.244 29.6046 163.002 29.8453 162.76 29.9656C162.398 30.086 162.035 30.2063 161.672 30.2063C161.309 30.2063 160.705 30.086 160.342 29.8453C159.979 29.6046 159.616 29.2436 159.374 28.7622C159.133 28.2808 159.012 27.7994 159.012 27.1977C159.012 26.596 159.012 26.1146 159.374 25.6332V25.8739ZM163.244 26.4756C163.123 26.235 162.881 25.9943 162.639 25.8739C162.398 25.7536 162.156 25.6332 161.914 25.6332C161.672 25.6332 161.43 25.6332 161.188 25.8739C160.946 25.9943 160.826 26.235 160.584 26.4756C160.463 26.7163 160.342 26.957 160.342 27.3181C160.342 27.6791 160.342 27.9198 160.584 28.1605C160.705 28.4011 160.946 28.6418 161.188 28.7622C161.43 28.8825 161.672 29.0029 161.914 29.0029C162.156 29.0029 162.398 29.0029 162.639 28.7622C162.881 28.5215 163.002 28.4011 163.244 28.1605C163.365 27.9198 163.486 27.5587 163.486 27.3181C163.486 27.0774 163.486 26.7163 163.244 26.4756Z" fill="#05322B"/>
<path d="M167.96 25.7536V28.5215C167.96 28.7622 167.96 28.8825 168.081 28.8825C168.081 28.8825 168.323 29.0029 168.564 29.0029H169.169V30.2063H168.323C167.113 30.2063 166.509 29.6046 166.509 28.5215V25.8739H165.783V24.6705H166.509V23.2264H167.96V24.6705H169.169V25.8739H167.96V25.7536Z" fill="#05322B"/>
<path d="M175.457 27.7994H171.346C171.346 28.1605 171.467 28.5215 171.829 28.7622C172.071 29.0029 172.434 29.1232 172.797 29.1232C173.28 29.1232 173.764 28.8825 173.885 28.4012H175.457C175.336 28.8825 174.973 29.3639 174.49 29.7249C174.006 30.086 173.401 30.2063 172.797 30.2063C172.192 30.2063 171.709 30.2063 171.346 29.8453C170.862 29.6046 170.62 29.2436 170.378 28.8825C170.137 28.4012 170.016 27.9198 170.016 27.3181C170.016 26.7163 170.016 26.235 170.378 25.7536C170.62 25.2722 170.983 25.0315 171.346 24.7908C171.709 24.5502 172.313 24.4298 172.797 24.4298C173.28 24.4298 173.764 24.4298 174.248 24.7908C174.732 25.1519 174.973 25.3926 175.215 25.7536C175.457 26.1146 175.578 26.7163 175.578 27.1977C175.578 27.6791 175.578 27.5588 175.578 27.7994H175.457ZM174.006 26.8367C174.006 26.4757 173.885 26.235 173.643 25.9943C173.401 25.7536 173.039 25.6332 172.676 25.6332C172.313 25.6332 172.071 25.6332 171.829 25.9943C171.588 26.235 171.467 26.4757 171.346 26.8367H174.006Z" fill="#05322B"/>
<path d="M176.545 25.8739C176.787 25.3926 177.029 25.1519 177.512 24.9112C177.875 24.6705 178.359 24.5502 178.843 24.5502C179.326 24.5502 179.568 24.5502 179.931 24.7908C180.294 24.9112 180.535 25.1519 180.777 25.3926V22.745H182.228V30.2063H180.777V29.3639C180.656 29.6046 180.294 29.8453 180.052 30.086C179.689 30.2063 179.326 30.3267 178.963 30.3267C178.601 30.3267 177.996 30.2063 177.633 29.9656C177.271 29.7249 176.908 29.3639 176.666 28.8825C176.424 28.4012 176.303 27.9198 176.303 27.3181C176.303 26.7163 176.303 26.235 176.666 25.7536L176.545 25.8739ZM180.415 26.4757C180.294 26.235 180.052 25.9943 179.81 25.8739C179.568 25.7536 179.326 25.6332 179.084 25.6332C178.843 25.6332 178.601 25.6332 178.359 25.8739C178.117 25.9943 177.996 26.235 177.754 26.4757C177.633 26.7163 177.512 26.957 177.512 27.3181C177.512 27.6791 177.512 27.9198 177.754 28.1605C177.875 28.4012 178.117 28.6418 178.359 28.7622C178.601 28.8825 178.843 29.0029 179.084 29.0029C179.326 29.0029 179.568 29.0029 179.81 28.7622C180.052 28.5215 180.173 28.4012 180.415 28.1605C180.535 27.9198 180.656 27.5588 180.656 27.3181C180.656 27.0774 180.656 26.7163 180.415 26.4757Z" fill="#05322B"/>
<path d="M129.991 39.2321V41.0373H132.409V42.1203H129.991V44.0458H132.651V45.2493H128.54V38.149H132.651V39.3524H129.991V39.2321Z" fill="#05322B"/>
<path d="M138.697 40.0745C139.06 40.5559 139.302 41.0373 139.302 41.8797V45.129H137.851V42C137.851 41.5186 137.851 41.1576 137.488 40.9169C137.246 40.6762 137.004 40.5559 136.52 40.5559C136.037 40.5559 135.795 40.6762 135.553 40.9169C135.311 41.1576 135.19 41.5186 135.19 42V45.129H133.739V39.4728H135.19V40.1949C135.432 39.9542 135.674 39.7135 135.916 39.5931C136.158 39.4728 136.52 39.3524 136.883 39.3524C137.609 39.3524 138.092 39.5931 138.455 39.9542L138.697 40.0745Z" fill="#05322B"/>
<path d="M144.017 39.7135C144.38 39.8338 144.622 40.0745 144.743 40.3152V39.4728H146.194V45.129C146.194 45.6103 146.194 46.0917 145.831 46.5731C145.589 46.9341 145.348 47.2951 144.864 47.5358C144.501 47.7765 143.897 47.8969 143.292 47.8969C142.687 47.8969 141.841 47.6562 141.357 47.2951C140.873 46.9341 140.511 46.4527 140.511 45.7307H141.962C141.962 45.9714 142.204 46.212 142.445 46.3324C142.687 46.4527 143.05 46.5731 143.292 46.5731C143.534 46.5731 144.017 46.4527 144.259 46.212C144.501 45.9714 144.622 45.6103 144.622 45.129V44.2865C144.38 44.5272 144.138 44.7679 143.897 44.8883C143.534 45.0086 143.171 45.129 142.808 45.129C142.445 45.129 141.841 45.0086 141.478 44.7679C141.115 44.5272 140.753 44.1662 140.511 43.6848C140.269 43.2034 140.148 42.7221 140.148 42.1204C140.148 41.5186 140.148 41.0373 140.511 40.5559C140.753 40.0745 140.994 39.8338 141.478 39.5931C141.841 39.3524 142.325 39.2321 142.808 39.2321C143.292 39.2321 143.655 39.2321 143.897 39.4728L144.017 39.7135ZM144.622 41.3983C144.501 41.1576 144.259 40.9169 144.017 40.7966C143.776 40.6762 143.534 40.5559 143.292 40.5559C143.05 40.5559 142.808 40.5559 142.566 40.7966C142.325 40.9169 142.204 41.1576 141.962 41.3983C141.841 41.639 141.72 41.8797 141.72 42.2407C141.72 42.6017 141.72 42.8424 141.962 43.0831C142.083 43.3238 142.325 43.5645 142.566 43.6848C142.808 43.8052 143.05 43.9255 143.292 43.9255C143.534 43.9255 143.776 43.9255 144.017 43.6848C144.259 43.4441 144.38 43.3238 144.622 43.0831C144.743 42.8424 144.864 42.4814 144.864 42.2407C144.864 42 144.864 41.639 144.622 41.3983Z" fill="#05322B"/>
<path d="M147.766 38.6304C147.645 38.51 147.524 38.2693 147.524 38.0287C147.524 37.788 147.524 37.5473 147.766 37.4269C147.887 37.3066 148.129 37.1862 148.371 37.1862C148.613 37.1862 148.855 37.1862 148.975 37.4269C149.096 37.5473 149.217 37.788 149.217 38.0287C149.217 38.2693 149.217 38.51 148.975 38.6304C148.855 38.7507 148.613 38.8711 148.371 38.8711C148.129 38.8711 147.887 38.8711 147.766 38.6304ZM149.096 39.4728V45.1289H147.645V39.4728H149.096Z" fill="#05322B"/>
<path d="M155.263 40.0745C155.626 40.5559 155.868 41.0373 155.868 41.8797V45.129H154.416V42C154.416 41.5186 154.416 41.1576 154.054 40.9169C153.812 40.6762 153.57 40.5559 153.086 40.5559C152.603 40.5559 152.361 40.6762 152.119 40.9169C151.877 41.1576 151.756 41.5186 151.756 42V45.129H150.305V39.4728H151.756V40.1949C151.998 39.9542 152.24 39.7135 152.482 39.5931C152.724 39.4728 153.086 39.3524 153.449 39.3524C154.175 39.3524 154.658 39.5931 155.021 39.9542L155.263 40.0745Z" fill="#05322B"/>
<path d="M162.398 42.7221H158.286C158.286 43.0831 158.407 43.4441 158.77 43.6848C159.012 43.9255 159.374 44.0459 159.737 44.0459C160.221 44.0459 160.705 43.8052 160.826 43.3238H162.398C162.277 43.8052 161.914 44.2865 161.43 44.6476C160.946 45.0086 160.342 45.129 159.737 45.129C159.133 45.129 158.649 45.129 158.286 44.7679C157.802 44.5272 157.561 44.1662 157.319 43.8052C157.077 43.3238 156.956 42.8424 156.956 42.2407C156.956 41.639 156.956 41.1576 157.319 40.6762C157.561 40.1949 157.923 39.9542 158.286 39.7135C158.649 39.4728 159.254 39.3524 159.737 39.3524C160.221 39.3524 160.705 39.3524 161.188 39.7135C161.672 40.0745 161.914 40.3152 162.156 40.6762C162.398 41.0373 162.518 41.639 162.518 42.1204C162.518 42.6017 162.518 42.4814 162.518 42.7221H162.398ZM160.946 41.7593C160.946 41.3983 160.826 41.1576 160.584 40.9169C160.342 40.6762 159.979 40.5559 159.616 40.5559C159.254 40.5559 159.012 40.5559 158.77 40.9169C158.528 41.1576 158.407 41.3983 158.286 41.7593H160.946Z" fill="#05322B"/>
<path d="M168.686 42.7221H164.574C164.574 43.0831 164.695 43.4441 165.058 43.6848C165.3 43.9255 165.663 44.0459 166.025 44.0459C166.509 44.0459 166.993 43.8052 167.114 43.3238H168.686C168.565 43.8052 168.202 44.2865 167.718 44.6476C167.235 45.0086 166.63 45.129 166.025 45.129C165.421 45.129 164.937 45.129 164.574 44.7679C164.091 44.5272 163.849 44.1662 163.607 43.8052C163.365 43.3238 163.244 42.8424 163.244 42.2407C163.244 41.639 163.244 41.1576 163.607 40.6762C163.849 40.1949 164.212 39.9542 164.574 39.7135C164.937 39.4728 165.542 39.3524 166.025 39.3524C166.509 39.3524 166.993 39.3524 167.476 39.7135C167.96 40.0745 168.202 40.3152 168.444 40.6762C168.686 41.0373 168.807 41.639 168.807 42.1204C168.807 42.6017 168.807 42.4814 168.807 42.7221H168.686ZM167.235 41.7593C167.235 41.3983 167.114 41.1576 166.872 40.9169C166.63 40.6762 166.267 40.5559 165.904 40.5559C165.542 40.5559 165.3 40.5559 165.058 40.9169C164.816 41.1576 164.695 41.3983 164.574 41.7593H167.235Z" fill="#05322B"/>
<path d="M171.951 39.7135C172.192 39.5931 172.555 39.4728 172.918 39.4728V40.9169H172.555C172.071 40.9169 171.83 40.9169 171.588 41.278C171.346 41.639 171.225 41.8797 171.225 42.361V45.129H169.774V39.4728H171.225V40.3152C171.467 40.0745 171.588 39.8338 171.951 39.5931V39.7135Z" fill="#05322B"/>
<path d="M174.006 38.6304C173.885 38.51 173.764 38.2693 173.764 38.0287C173.764 37.788 173.764 37.5473 174.006 37.4269C174.127 37.3066 174.369 37.1862 174.611 37.1862C174.852 37.1862 175.094 37.1862 175.215 37.4269C175.336 37.5473 175.457 37.788 175.457 38.0287C175.457 38.2693 175.457 38.51 175.215 38.6304C175.094 38.7507 174.852 38.8711 174.611 38.8711C174.369 38.8711 174.127 38.8711 174.006 38.6304ZM175.336 39.4728V45.1289H173.885V39.4728H175.336Z" fill="#05322B"/>
<path d="M181.503 40.0745C181.866 40.5559 182.108 41.0373 182.108 41.8797V45.129H180.657V42C180.657 41.5186 180.657 41.1576 180.294 40.9169C180.052 40.6762 179.81 40.5559 179.327 40.5559C178.843 40.5559 178.601 40.6762 178.359 40.9169C178.117 41.1576 177.996 41.5186 177.996 42V45.129H176.545V39.4728H177.996V40.1949C178.238 39.9542 178.48 39.7135 178.722 39.5931C178.964 39.4728 179.327 39.3524 179.689 39.3524C180.415 39.3524 180.899 39.5931 181.261 39.9542L181.503 40.0745Z" fill="#05322B"/>
<path d="M186.702 39.7135C187.065 39.8338 187.307 40.0745 187.428 40.3152V39.4728H188.879V45.129C188.879 45.6103 188.879 46.0917 188.516 46.5731C188.274 46.9341 188.033 47.2951 187.549 47.5358C187.186 47.7765 186.582 47.8969 185.977 47.8969C185.372 47.8969 184.526 47.6562 184.042 47.2951C183.559 46.9341 183.196 46.4527 183.196 45.7307H184.647C184.647 45.9714 184.889 46.212 185.131 46.3324C185.372 46.4527 185.735 46.5731 185.977 46.5731C186.219 46.5731 186.703 46.4527 186.944 46.212C187.186 45.9714 187.307 45.6103 187.307 45.129V44.2865C187.065 44.5272 186.823 44.7679 186.582 44.8883C186.219 45.0086 185.856 45.129 185.493 45.129C185.131 45.129 184.526 45.0086 184.163 44.7679C183.8 44.5272 183.438 44.1662 183.196 43.6848C182.954 43.2034 182.833 42.7221 182.833 42.1204C182.833 41.5186 182.833 41.0373 183.196 40.5559C183.438 40.0745 183.679 39.8338 184.163 39.5931C184.526 39.3524 185.01 39.2321 185.493 39.2321C185.977 39.2321 186.34 39.2321 186.582 39.4728L186.702 39.7135ZM187.307 41.3983C187.186 41.1576 186.944 40.9169 186.702 40.7966C186.461 40.6762 186.219 40.5559 185.977 40.5559C185.735 40.5559 185.493 40.5559 185.251 40.7966C185.01 40.9169 184.889 41.1576 184.647 41.3983C184.526 41.639 184.405 41.8797 184.405 42.2407C184.405 42.6017 184.405 42.8424 184.647 43.0831C184.768 43.3238 185.01 43.5645 185.251 43.6848C185.493 43.8052 185.735 43.9255 185.977 43.9255C186.219 43.9255 186.461 43.9255 186.702 43.6848C186.944 43.4441 187.065 43.3238 187.307 43.0831C187.428 42.8424 187.549 42.4814 187.549 42.2407C187.549 42 187.549 41.639 187.307 41.3983Z" fill="#05322B"/>
<path d="M133.497 56.3209C133.376 56.682 133.014 56.9226 132.651 57.1633C132.288 57.404 131.804 57.5244 131.2 57.5244H129.991V60.2923H128.54V53.192H131.2C131.804 53.192 132.167 53.192 132.651 53.4327C133.014 53.6734 133.376 53.914 133.497 54.1547C133.739 54.5158 133.739 54.8768 133.739 55.2378C133.739 55.5989 133.739 55.9599 133.497 56.3209ZM132.046 55.9599C132.288 55.8395 132.288 55.4785 132.288 55.2378C132.288 54.5158 131.925 54.1547 131.079 54.1547H129.991V56.2006H131.079C131.442 56.2006 131.804 56.2006 131.925 55.9599H132.046Z" fill="#05322B"/>
<path d="M136.158 52.5903V60.0516H134.707V52.5903H136.158Z" fill="#05322B"/>
<path d="M137.609 55.7192C137.851 55.2378 138.093 54.9971 138.576 54.7565C138.939 54.5158 139.423 54.3954 139.906 54.3954C140.39 54.3954 140.753 54.3954 140.995 54.6361C141.357 54.7565 141.599 54.9972 141.72 55.2378V54.3954H143.171V60.0516H141.72V59.2092C141.478 59.4499 141.236 59.6906 140.995 59.8109C140.632 59.9312 140.269 60.0516 139.906 60.0516C139.544 60.0516 138.939 59.9312 138.576 59.6906C138.213 59.4499 137.851 59.0888 137.609 58.6075C137.367 58.1261 137.246 57.6447 137.246 57.043C137.246 56.4413 137.246 55.9599 137.609 55.4785V55.7192ZM141.478 56.4413C141.357 56.2006 141.116 55.9599 140.874 55.8396C140.632 55.7192 140.39 55.5989 140.148 55.5989C139.906 55.5989 139.665 55.5989 139.423 55.8396C139.181 55.9599 139.06 56.2006 138.818 56.4413C138.697 56.682 138.576 56.9226 138.576 57.2837C138.576 57.6447 138.576 57.8854 138.818 58.1261C138.939 58.3668 139.181 58.6075 139.423 58.7278C139.665 58.8482 139.906 58.9685 140.148 58.9685C140.39 58.9685 140.632 58.9685 140.874 58.7278C141.116 58.4871 141.236 58.3668 141.478 58.1261C141.599 57.8854 141.72 57.5244 141.72 57.2837C141.72 57.043 141.72 56.682 141.478 56.4413Z" fill="#05322B"/>
<path d="M146.194 55.5989V58.3668C146.194 58.6075 146.194 58.7278 146.315 58.7278C146.315 58.7278 146.557 58.8481 146.799 58.8481H147.403V60.0516H146.557C145.348 60.0516 144.743 59.4499 144.743 58.3668V55.7192H144.018V54.5158H144.743V53.0716H146.194V54.5158H147.403V55.7192H146.194V55.5989Z" fill="#05322B"/>
<path d="M151.031 55.5989H150.063V60.0516H148.612V55.5989H148.008V54.3954H148.612V54.1547C148.612 53.4327 148.854 52.9513 149.217 52.5903C149.58 52.2292 150.184 52.1089 151.031 52.1089V53.3123C150.668 53.3123 150.426 53.3123 150.305 53.4327C150.184 53.553 150.063 53.7937 150.063 54.0344V54.2751H151.031V55.4785V55.5989Z" fill="#05322B"/>
<path d="M152.966 59.8109C152.482 59.5702 152.24 59.2092 151.999 58.8482C151.757 58.3668 151.636 57.8854 151.636 57.2837C151.636 56.682 151.757 56.2006 151.999 55.7192C152.24 55.2378 152.603 54.9971 153.087 54.7565C153.57 54.5158 154.054 54.3954 154.538 54.3954C155.022 54.3954 155.626 54.5158 155.989 54.7565C156.352 54.9971 156.835 55.3582 157.077 55.7192C157.319 56.2006 157.44 56.682 157.44 57.2837C157.44 57.8854 157.319 58.3668 157.077 58.8482C156.835 59.3295 156.473 59.5702 155.989 59.8109C155.505 60.0516 155.022 60.1719 154.538 60.1719C154.054 60.1719 153.45 60.1719 153.087 59.8109H152.966ZM155.142 58.7278C155.384 58.6075 155.505 58.3668 155.626 58.1261C155.747 57.8854 155.868 57.5244 155.868 57.1633C155.868 56.682 155.747 56.2006 155.505 55.9599C155.263 55.7192 154.901 55.4785 154.417 55.4785C153.933 55.4785 153.691 55.5989 153.45 55.9599C153.208 56.3209 153.087 56.682 153.087 57.1633C153.087 57.6447 153.208 58.1261 153.45 58.3668C153.691 58.6075 154.054 58.8482 154.417 58.8482C154.78 58.8482 154.901 58.8482 155.142 58.6075V58.7278Z" fill="#05322B"/>
<path d="M160.584 54.6361C160.826 54.5158 161.188 54.3954 161.551 54.3954V55.8396H161.188C160.705 55.8396 160.463 55.8396 160.221 56.2006C159.979 56.5616 159.858 56.8023 159.858 57.2837V60.0516H158.407V54.3954H159.858V55.2378C160.1 54.9972 160.221 54.7565 160.584 54.5158V54.6361Z" fill="#05322B"/>
<path d="M171.225 54.9972C171.709 55.4785 171.829 55.9599 171.829 56.8023V60.0516H170.378V56.9227C170.378 56.4413 170.378 56.2006 170.016 55.9599C169.774 55.7192 169.532 55.5989 169.048 55.5989C168.565 55.5989 168.323 55.5989 168.081 55.9599C167.839 56.2006 167.718 56.5616 167.718 56.9227V60.0516H166.267V56.9227C166.267 56.4413 166.267 56.2006 165.904 55.9599C165.662 55.7192 165.421 55.5989 164.937 55.5989C164.453 55.5989 164.211 55.5989 163.97 55.9599C163.728 56.2006 163.607 56.5616 163.607 56.9227V60.0516H162.156V54.3954H163.607V55.1175C163.849 54.8768 163.97 54.6361 164.332 54.5158C164.695 54.3954 164.937 54.2751 165.3 54.2751C165.662 54.2751 166.146 54.2751 166.509 54.5158C166.872 54.7565 167.114 54.9972 167.355 55.3582C167.597 54.9972 167.839 54.7565 168.202 54.6361C168.565 54.5158 168.927 54.3954 169.29 54.3954C170.016 54.3954 170.499 54.6361 170.983 54.9972H171.225Z" fill="#05322B"/>
</g>
<defs>
<clipPath id="clip0_563_10210">
<rect width="189" height="84" fill="white"/>
</clipPath>
</defs>
</svg>
