<?xml version="1.0" encoding="UTF-8"?>
<svg version="1.1" xmlns="http://www.w3.org/2000/svg" width="151" height="36">
<path d="M0 0 C49.83 0 99.66 0 151 0 C151 11.88 151 23.76 151 36 C101.17 36 51.34 36 0 36 C0 24.12 0 12.24 0 0 Z " fill="#0B3730" transform="translate(0,0)"/>
<path d="M0 0 C14 0 14 0 19 3 C20.59616743 6.19233485 20.51466114 9.53461497 20 13 C18.12984906 15.43119623 16.71861655 16.64069173 14 18 C11.3276379 18.13415472 8.67749512 18.04318541 6 18 C6 21.63 6 25.26 6 29 C4.02 29 2.04 29 0 29 C0 19.43 0 9.86 0 0 Z " fill="#F2F5F4" transform="translate(73,4)"/>
<path d="M0 0 C5.28 0 10.56 0 16 0 C16 1.32 16 2.64 16 4 C12.7 4 9.4 4 6 4 C6 6.31 6 8.62 6 11 C8.97 11 11.94 11 15 11 C15 12.65 15 14.3 15 16 C12.03 16 9.06 16 6 16 C6 18.31 6 20.62 6 23 C9.3 23 12.6 23 16 23 C16 24.65 16 26.3 16 28 C10.72 28 5.44 28 0 28 C0 18.76 0 9.52 0 0 Z " fill="#F3F5F4" transform="translate(51,5)"/>
<path d="M0 0 C2.31 0 4.62 0 7 0 C7.309375 0.804375 7.61875 1.60875 7.9375 2.4375 C8.76335345 4.89080405 8.76335345 4.89080405 10 6 C12.87237733 6.58442963 12.87237733 6.58442963 16 6 C16.66 5.01 17.32 4.02 18 3 C20 -0 20 -0 23.0625 -0.625 C26 -0 26 -0 27.9375 1.75 C29 4 29 4 28.6875 6.25 C28.3471875 7.11625 28.3471875 7.11625 28 8 C26.02 8.33 24.04 8.66 22 9 C21.34 11.31 20.68 13.62 20 16 C19.443125 15.855625 18.88625 15.71125 18.3125 15.5625 C15.88615805 14.97230872 13.45093655 14.476571 11 14 C10.67 14.66 10.34 15.32 10 16 C8.35 15.67 6.7 15.34 5 15 C4.67 13.02 4.34 11.04 4 9 C3.21625 9.04125 2.4325 9.0825 1.625 9.125 C-1 9 -1 9 -3 7 C-2.625 4.875 -2.625 4.875 -2 3 C-1.34 3 -0.68 3 0 3 C0 2.01 0 1.02 0 0 Z " fill="#3AB58D" transform="translate(5,4)"/>
<path d="M0 0 C1.98 0 3.96 0 6 0 C6 9.57 6 19.14 6 29 C4.02 29 2.04 29 0 29 C0 19.43 0 9.86 0 0 Z " fill="#F0F3F2" transform="translate(39,4)"/>
<path d="M0 0 C1.32 0 2.64 0 4 0 C4.33 0.99 4.66 1.98 5 3 C6.98 3 8.96 3 11 3 C11.68707555 5.49064888 12 7.37886292 12 10 C12.99 10.33 13.98 10.66 15 11 C15 11.66 15 12.32 15 13 C12.36 13 9.72 13 7 13 C6.67 12.01 6.34 11.02 6 10 C3.69 9.67 1.38 9.34 -1 9 C-1.66 10.32 -2.32 11.64 -3 13 C-5.64 13 -8.28 13 -11 13 C-11 12.34 -11 11.68 -11 11 C-10.01 11 -9.02 11 -8 11 C-8 8.69 -8 6.38 -8 4 C-5.50935112 3.31292445 -3.62113708 3 -1 3 C-0.67 2.01 -0.34 1.02 0 0 Z " fill="#2D7D6E" transform="translate(16,20)"/>
<path d="M0 0 C0.66 0 1.32 0 2 0 C2 0.66 2 1.32 2 2 C7.94 2 13.88 2 20 2 C20 1.34 20 0.68 20 0 C20.66 0 21.32 0 22 0 C22 0.66 22 1.32 22 2 C23.32 2.33 24.64 2.66 26 3 C25.34 3 24.68 3 24 3 C24 4.32 24 5.64 24 7 C18.33333333 7 12.66666667 7 7 7 C5.41471795 7.14697979 3.8311763 7.31397926 2.25 7.5 C1.45078125 7.5928125 0.6515625 7.685625 -0.171875 7.78125 C-1.07679687 7.88953125 -1.07679687 7.88953125 -2 8 C-2 6.35 -2 4.7 -2 3 C-2.66 3 -3.32 3 -4 3 C-4.33 3.99 -4.66 4.98 -5 6 C-5.66 6 -6.32 6 -7 6 C-7 5.01 -7 4.02 -7 3 C-3.535 2.505 -3.535 2.505 0 2 C0 1.34 0 0.68 0 0 Z " fill="#9EAFAD" transform="translate(116,15)"/>
<path d="M0 0 C6.75 -0.125 6.75 -0.125 9 1 C9.04254356 2.99954746 9.04080783 5.00041636 9 7 C8 8 8 8 6.15234375 8.09765625 C4.1015625 8.06510417 2.05078125 8.03255208 0 8 C0 5.36 0 2.72 0 0 Z " fill="#0F3A34" transform="translate(78,9)"/>
<path d="M0 0 C0.33 0 0.66 0 1 0 C1 1.98 1 3.96 1 6 C-0.32 6 -1.64 6 -3 6 C-3 5.34 -3 4.68 -3 4 C-3.66 4.66 -4.32 5.32 -5 6 C-7.6015625 6.1953125 -7.6015625 6.1953125 -10.625 6.125 C-12.12933594 6.09792969 -12.12933594 6.09792969 -13.6640625 6.0703125 C-14.43492188 6.04710937 -15.20578125 6.02390625 -16 6 C-16.5625 4.0625 -16.5625 4.0625 -17 2 C-16 1 -16 1 -12.6875 0.9375 C-10.8621875 0.9684375 -10.8621875 0.9684375 -9 1 C-7.68 1 -6.36 1 -5 1 C-4.01 1.33 -3.02 1.66 -2 2 C-1.67 2 -1.34 2 -1 2 C-0.67 1.34 -0.34 0.68 0 0 Z " fill="#91A5A2" transform="translate(142,4)"/>
<path d="M0 0 C4 0 8 0 12 0 C12 1.98 12 3.96 12 6 C10.68 6.33 9.36 6.66 8 7 C8 6.01 8 5.02 8 4 C7.4225 4.165 6.845 4.33 6.25 4.5 C4 5 4 5 0 5 C0 3.35 0 1.7 0 0 Z " fill="#96A9A6" transform="translate(109,5)"/>
<path d="M0 0 C-0.33 1.32 -0.66 2.64 -1 4 C-1 3.01 -1 2.02 -1 1 C-1.66 1 -2.32 1 -3 1 C-3.33 1.99 -3.66 2.98 -4 4 C-4 3.01 -4 2.02 -4 1 C-4.66 1 -5.32 1 -6 1 C-6 1.99 -6 2.98 -6 4 C-8.97 4 -11.94 4 -15 4 C-15 2.68 -15 1.36 -15 0 C-10.1129572 -1.5638537 -4.8870428 -1.5638537 0 0 Z " fill="#A6B6B4" transform="translate(135,29)"/>
<path d="M0 0 C0.66 0 1.32 0 2 0 C2 0.66 2 1.32 2 2 C3.32 2.33 4.64 2.66 6 3 C5.34 3 4.68 3 4 3 C4 4.32 4 5.64 4 7 C-2.625 7.25 -2.625 7.25 -6 5 C-5.67 4.34 -5.34 3.68 -5 3 C-4.34 3.33 -3.68 3.66 -3 4 C-3 3.34 -3 2.68 -3 2 C-2.01 2 -1.02 2 0 2 C0 1.34 0 0.68 0 0 Z " fill="#849A96" transform="translate(136,15)"/>
<path d="M0 0 C0 0.66 0 1.32 0 2 C1.65 2 3.3 2 5 2 C5 3.32 5 4.64 5 6 C2.69 6 0.38 6 -2 6 C-2.33 5.34 -2.66 4.68 -3 4 C-3.99 3.67 -4.98 3.34 -6 3 C-6 2.34 -6 1.68 -6 1 C-3.92446352 0.4465236 -2.15634036 0 0 0 Z " fill="#A1B2AF" transform="translate(108,27)"/>
<path d="M0 0 C0 1.98 0 3.96 0 6 C-4 6 -4 6 -6 5 C-6 3.68 -6 2.36 -6 1 C-4 0 -4 0 0 0 Z " fill="#9EB0AD" transform="translate(148,17)"/>
<path d="M0 0 C2.64 0 5.28 0 8 0 C8.33 0.66 8.66 1.32 9 2 C8 3 7 4 6 5 C3 5 3 5 0 4 C0 2.68 0 1.36 0 0 Z " fill="#ABBAB7" transform="translate(124,17)"/>
<path d="M0 0 C0.33 0 0.66 0 1 0 C1 1.98 1 3.96 1 6 C-0.32 6 -1.64 6 -3 6 C-3 5.34 -3 4.68 -3 4 C-3.66 4.66 -4.32 5.32 -5 6 C-5.99 6 -6.98 6 -8 6 C-7.67 4.35 -7.34 2.7 -7 1 C-5.7934375 1.2475 -5.7934375 1.2475 -4.5625 1.5 C-2.2715557 2.03191839 -2.2715557 2.03191839 -1 2 C-0.67 1.34 -0.34 0.68 0 0 Z " fill="#BECAC8" transform="translate(142,4)"/>
<path d="M0 0 C2.31 0.66 4.62 1.32 7 2 C6.67 3.32 6.34 4.64 6 6 C6 5.01 6 4.02 6 3 C5.34 3 4.68 3 4 3 C4 3.99 4 4.98 4 6 C2.68 6 1.36 6 0 6 C0 4.02 0 2.04 0 0 Z " fill="#899E9B" transform="translate(101,4)"/>
<path d="M0 0 C1.32 0.33 2.64 0.66 4 1 C4 1.66 4 2.32 4 3 C4.33 2.34 4.66 1.68 5 1 C5.99 1.33 6.98 1.66 8 2 C7.34 2 6.68 2 6 2 C6 3.32 6 4.64 6 6 C4.02 6 2.04 6 0 6 C0 4.02 0 2.04 0 0 Z " fill="#9FB0AD" transform="translate(101,16)"/>
<path d="M0 0 C4 0 4 0 7 1 C7 1.66 7 2.32 7 3 C4.69 3.66 2.38 4.32 0 5 C0 3.35 0 1.7 0 0 Z " fill="#B6C3C1" transform="translate(109,5)"/>
<path d="M0 0 C1.65 0 3.3 0 5 0 C5 1.32 5 2.64 5 4 C3.35 4 1.7 4 0 4 C0 2.68 0 1.36 0 0 Z " fill="#93A7A4" transform="translate(120,29)"/>
</svg>
